<?xml version="1.0" encoding="utf-8"?>
<!-- Generator: Adobe Illustrator 18.1.1, SVG Export Plug-In . SVG Version: 6.00 Build 0)  -->
<!DOCTYPE svg PUBLIC "-//W3C//DTD SVG 1.1//EN" "http://www.w3.org/Graphics/SVG/1.1/DTD/svg11.dtd">
<svg version="1.1" id="Layer_1" xmlns="http://www.w3.org/2000/svg" xmlns:xlink="http://www.w3.org/1999/xlink" x="0px" y="0px"
	 width="179.9px" height="85.4px" viewBox="0 0 179.9 85.4" enable-background="new 0 0 179.9 85.4" xml:space="preserve">
<symbol  id="_x2E_logo-bede" viewBox="-89.9 -42.7 179.8 85.4">
	<g>
		<path fill="#6B7482" d="M73.8,29c-9.9,3.7-20.9,0.8-27.1-7.6c-3-4.1-5.1-8.9-7.7-13.3c-2-3.5-3.8-7.3-6.2-10.5
			C29-7.7,22.9-9.3,16.9-7C11.5-4.9,7.8,0.7,8.1,6.5c0.3,6.1,4.5,11.3,10.5,13c5.7,1.5,11.7-0.9,15.2-6.1c0.4-0.6,0.9-1.2,1.5-2.1
			c6.5,11.6,10.6,16.4,10.6,16.4v14.9h-10V26.9c-16.4,6.5-26.6,4.7-35.7-9.3c-0.8,1.1-1.5,2-2.2,2.9c-10.2,13.6-30.6,13.2-40-1
			c-2.4-3.6-4-7.6-6.1-11.4c-2-3.7-3.8-7.6-6.3-10.9C-59.6-9.3-69-9.7-74.9-3.9c-5.9,5.8-5.5,15.1,0.8,20.5
			c6.2,5.3,15.6,4.1,20.4-2.7c0.6-0.8,1.1-1.6,1.9-2.7c1.7,3,6,9.8,6,9.8s-0.6,0.9-2,2.3c-7.3,7.2-18.6,9.2-27.9,4.8
			c-1-0.5-2-0.9-3.6-1.7v16.2h-10.7V2.9c0.5-10,9-18.2,18.6-20.6c10.5-2.6,20.2,0.7,26.2,9.4c2.4,3.5,4.2,7.5,6.3,11.3
			c2.1,3.9,3.9,8.1,6.6,11.5c5.7,7.4,16.1,7.2,21.7-0.2c0.8-1,1.1-2.3,2-4c-6.8,0-12.9-0.1-18.9,0.1c-2.5,0.1-4.1-0.6-5.2-3
			c-2.2-4.8-4.6-9.5-7.1-14.1c-1.1-2.1-0.7-3.3,0.9-4.8c4.9-4.6,10.7-7.1,17.5-7c7.1,0.1,13.1,2.7,18,8.3c-2.8,2.4-5.3,4.6-7.7,6.8
			c-9.7-7.2-20.3-4.7-22.8,4.8c0.4,0.1,0,0.1,0,0.1H-3c3-6.9,8.6-15.2,15.8-18.1C25.5-22,38.4-16.8,45.3-3.5c2.4,4.7,4.3,9.6,7,14.1
			c1.7,2.9,4.1,5.9,6.9,7.6c7,4.4,17.6-0.2,18.6-7.9c-6.4,0-12.9,0.1-19.2-0.1c-1.3,0-3.2-0.9-3.8-2C52,3.1,49.4-2.2,46.9-7.5
			c-0.4-0.8-0.2-2.4,0.4-3.1C56-21.4,75.5-21,83.9-9.6c-2.6,2-5.2,4.1-7.8,6.1C65.8-10.4,54.6-8,52.8,1.6c1.3,0,2.6,0,3.8,0
			c9.8,0,33.3,0,33.3,0l0,3.5C90.3,15.5,83.8,25.4,73.8,29z"/>
		<path fill="#6B7482" d="M-81.5-35.5h3.4v-4.8c-0.5-0.3-1.2-0.6-1.8-0.7c-0.7-0.2-1.4-0.3-2.1-0.3c-0.9,0-1.8,0.2-2.5,0.5
			c-0.7,0.3-1.4,0.8-1.9,1.4c-0.5,0.6-0.9,1.2-1.2,2c-0.3,0.8-0.4,1.5-0.4,2.4c0,0.8,0.1,1.6,0.4,2.4c0.3,0.8,0.7,1.4,1.2,2
			c0.5,0.6,1.1,1,1.9,1.4c0.7,0.3,1.6,0.5,2.5,0.5c0.9,0,1.7-0.1,2.4-0.4c0.7-0.3,1.3-0.7,1.8-1.2l1.1,1.1c-0.7,0.7-1.4,1.1-2.2,1.5
			c-0.8,0.3-1.8,0.5-3,0.5c-1.1,0-2.1-0.2-3-0.6c-0.9-0.4-1.7-0.9-2.4-1.6c-0.7-0.7-1.2-1.5-1.6-2.4c-0.4-0.9-0.6-1.9-0.6-3
			c0-1.1,0.2-2.1,0.6-3c0.4-0.9,0.9-1.7,1.6-2.4c0.7-0.7,1.5-1.2,2.4-1.6c0.9-0.4,1.9-0.6,3-0.6c0.9,0,1.8,0.1,2.8,0.4
			c1,0.3,1.9,0.6,2.7,1.1v7.1h-4.9V-35.5z"/>
		<path fill="#6B7482" d="M-48.6-27.9l-6.3-14.4h1.7l1.6,3.8h7.4l1.6-3.8h1.7l-6.3,14.4H-48.6z M-51.1-37.2l3.1,7.6l3.1-7.6H-51.1z"
			/>
		<polygon fill="#6B7482" points="-12.1,-39.6 -17,-27.9 -19.2,-27.9 -19.2,-42.3 -17.7,-42.3 -17.7,-29.9 -17.7,-29.9 -12.5,-42.3 
			-11.7,-42.3 -6.5,-29.9 -6.5,-29.9 -6.5,-42.3 -5,-42.3 -5,-27.9 -7.2,-27.9 		"/>
		<polygon fill="#6B7482" points="18.7,-42.3 20.2,-42.3 20.2,-27.9 18.7,-27.9 		"/>
		<polygon fill="#6B7482" points="54.3,-40.1 54.3,-40.1 45.7,-27.9 43.9,-27.9 43.9,-42.3 45.3,-42.3 45.3,-30 45.4,-30 54,-42.3 
			55.8,-42.3 55.8,-27.9 54.3,-27.9 		"/>
		<path fill="#6B7482" d="M85-35.5h3.4v-4.8c-0.5-0.3-1.2-0.6-1.8-0.7c-0.7-0.2-1.4-0.3-2.1-0.3c-0.9,0-1.8,0.2-2.5,0.5
			c-0.7,0.3-1.4,0.8-1.9,1.4c-0.5,0.6-0.9,1.2-1.2,2c-0.3,0.8-0.4,1.5-0.4,2.4c0,0.8,0.1,1.6,0.4,2.4c0.3,0.8,0.7,1.4,1.2,2
			c0.5,0.6,1.1,1,1.9,1.4c0.7,0.3,1.6,0.5,2.5,0.5c0.9,0,1.7-0.1,2.4-0.4c0.7-0.3,1.3-0.7,1.8-1.2l1.1,1.1c-0.7,0.7-1.4,1.1-2.2,1.5
			c-0.8,0.3-1.8,0.5-3,0.5c-1.1,0-2.1-0.2-3-0.6c-0.9-0.4-1.7-0.9-2.4-1.6c-0.7-0.7-1.2-1.5-1.6-2.4c-0.4-0.9-0.6-1.9-0.6-3
			c0-1.1,0.2-2.1,0.6-3c0.4-0.9,0.9-1.7,1.6-2.4c0.7-0.7,1.5-1.2,2.4-1.6c0.9-0.4,1.9-0.6,3-0.6c0.9,0,1.8,0.1,2.8,0.4
			c1,0.3,1.9,0.6,2.7,1.1v7.1H85V-35.5z"/>
	</g>
</symbol>
<use xlink:href="#_x2E_logo-bede"  width="179.8" height="85.4" id="XMLID_3_" x="-89.9" y="-42.7" transform="matrix(1.0005 0 0 -1 89.9586 42.6984)" overflow="visible"/>
</svg>
