<?xml version="1.0" encoding="utf-8"?>
<!-- Generator: Adobe Illustrator 18.1.1, SVG Export Plug-In . SVG Version: 6.00 Build 0)  -->
<svg version="1.1" id="Layer_1" xmlns="http://www.w3.org/2000/svg" xmlns:xlink="http://www.w3.org/1999/xlink" x="0px" y="0px"
	 width="32.2px" height="32.2px" viewBox="0 0 32.2 32.2" enable-background="new 0 0 32.2 32.2" xml:space="preserve">
<g>
	<g>
		<path fill="#6B7482" d="M32.2,26.1c0,0.2-0.1,0.4-0.2,0.5L26.6,32c-0.2,0.1-0.3,0.2-0.5,0.2c-0.2,0-0.4-0.1-0.6-0.2l-9.4-9.4
			L6.7,32c-0.2,0.1-0.3,0.2-0.6,0.2c-0.2,0-0.4-0.1-0.5-0.2l-5.4-5.4C0.1,26.5,0,26.3,0,26.1c0-0.2,0.1-0.4,0.2-0.6l9.4-9.4L0.2,6.7
			C0.1,6.6,0,6.4,0,6.2c0-0.2,0.1-0.4,0.2-0.5l5.4-5.4C5.8,0.1,5.9,0,6.2,0c0.2,0,0.4,0.1,0.6,0.2l9.4,9.4l9.4-9.4
			C25.7,0.1,25.9,0,26.1,0c0.2,0,0.4,0.1,0.5,0.2L32,5.6c0.1,0.2,0.2,0.3,0.2,0.5c0,0.2-0.1,0.4-0.2,0.6l-9.4,9.4l9.4,9.4
			C32.2,25.7,32.2,25.9,32.2,26.1z"/>
	</g>
	<g>
		<path fill="#6B7482" d="M32.2,26.1c0,0.2-0.1,0.4-0.2,0.5L26.6,32c-0.2,0.1-0.3,0.2-0.5,0.2c-0.2,0-0.4-0.1-0.6-0.2l-9.4-9.4
			L6.7,32c-0.2,0.1-0.3,0.2-0.6,0.2c-0.2,0-0.4-0.1-0.5-0.2l-5.4-5.4C0.1,26.5,0,26.3,0,26.1c0-0.2,0.1-0.4,0.2-0.6l9.4-9.4L0.2,6.7
			C0.1,6.6,0,6.4,0,6.2c0-0.2,0.1-0.4,0.2-0.5l5.4-5.4C5.8,0.1,5.9,0,6.2,0c0.2,0,0.4,0.1,0.6,0.2l9.4,9.4l9.4-9.4
			C25.7,0.1,25.9,0,26.1,0c0.2,0,0.4,0.1,0.5,0.2L32,5.6c0.1,0.2,0.2,0.3,0.2,0.5c0,0.2-0.1,0.4-0.2,0.6l-9.4,9.4l9.4,9.4
			C32.2,25.7,32.2,25.9,32.2,26.1z"/>
	</g>
</g>
</svg>
