<?xml version="1.0" encoding="utf-8"?>
<!-- Generator: Adobe Illustrator 18.1.1, SVG Export Plug-In . SVG Version: 6.00 Build 0)  -->
<svg version="1.1" id="Layer_1" xmlns="http://www.w3.org/2000/svg" xmlns:xlink="http://www.w3.org/1999/xlink" x="0px" y="0px"
	 width="171px" height="30px" viewBox="0 0 171 30" enable-background="new 0 0 171 30" xml:space="preserve">
<g>
	<path fill="#FFFFFF" d="M11.8,21.7c-1.1,1.2-2.5,1.8-4.3,1.8c-1.2,0-2.4-0.3-3.3-0.8c0.1,0.4,0.1,0.8,0.1,1.3v5l-4,1.1V11.5
		c0-2.1,0-2.7-0.2-4l3.7-0.7C3.9,7.4,4,7.8,4,8.3c0.7-0.9,2.3-1.5,3.9-1.5c1.1,0,2.3,0.4,3.1,1c1.7,1.2,3,3.2,3,6.9
		C14,18.1,13.5,19.9,11.8,21.7z M9.1,11.6c-0.3-0.9-1-1.3-2-1.3s-2,0.4-2.8,1.2v7.8c0.6,0.5,1.5,0.9,2.3,0.9c2.1,0,2.9-1.4,2.9-5.1
		C9.5,13.6,9.4,12.4,9.1,11.6z"/>
	<path fill="#FFFFFF" d="M20.1,16.5v0.1c0,2.5,1.2,3.9,3.4,3.9c1.4,0,2.8-0.5,4.1-1.6l1.6,2.5c-1.8,1.5-3.8,2.2-6,2.2
		c-4.6,0-7.5-3.2-7.5-8.3c0-2.9,0.6-4.8,2-6.3c1.3-1.5,2.9-2.2,5-2.2c1.8,0,3.6,0.6,4.6,1.7c1.5,1.5,2.1,3.7,2.1,7v1L20.1,16.5
		L20.1,16.5z M25,13.2c0-1.2-0.1-1.8-0.5-2.4c-0.4-0.6-1-0.9-1.8-0.9c-1.6,0-2.5,1.2-2.5,3.5v0.1H25V13.2z"/>
	<path fill="#FFFFFF" d="M42.6,22.2c-1.1,0.9-2.2,1.2-3.5,1.2c-1.6,0-2.7-0.5-3.6-1.5c-0.1,0.6-0.2,0.7-0.4,1.2h-3.7
		c0.3-0.7,0.4-1.2,0.4-3.4V4.9c0-2-0.1-3-0.3-3.9l4.3-1c0.1,1.1,0.2,1.7,0.2,2.8v3.8c0,0.5,0,1.2-0.1,1.4c0.8-0.9,1.9-1.3,3.4-1.3
		c3.9,0,6.3,3.1,6.3,8.1C45.6,18.1,44.6,20.6,42.6,22.2z M40.6,12.2c-0.3-1.4-1.2-2-2.3-2c-1.1,0-1.8,0.7-2.4,1.3v7.4
		c0.6,0.5,1.2,1,2.3,1c1,0,1.7-0.4,2-1.2c0.4-0.9,0.5-1.7,0.5-3.7C40.8,13.5,40.8,12.9,40.6,12.2z"/>
	<path fill="#FFFFFF" d="M58.9,22.2c-1.1,0.9-2.2,1.2-3.5,1.2c-1.6,0-2.7-0.5-3.6-1.5c-0.1,0.6-0.2,0.7-0.4,1.2h-3.7
		c0.3-0.7,0.4-1.2,0.4-3.4V4.9c0-2-0.1-3-0.3-3.9l4.3-1c0.1,1.1,0.2,1.7,0.2,2.8v3.8c0,0.5,0,1.2-0.1,1.4c0.8-0.9,1.9-1.3,3.4-1.3
		c3.9,0,6.3,3.1,6.3,8.1C61.9,18.1,60.9,20.6,58.9,22.2z M57,12.2c-0.3-1.4-1.2-2-2.3-2c-1.1,0-1.8,0.7-2.4,1.3v7.4
		c0.6,0.5,1.2,1,2.3,1c1,0,1.7-0.4,2-1.2c0.4-0.9,0.5-1.7,0.5-3.7C57.2,13.5,57.1,12.9,57,12.2z"/>
	<path fill="#FFFFFF" d="M68.5,23.5c-1.8,0-3.2-0.8-3.7-2.2c-0.3-0.8-0.4-1.3-0.4-3.6V5.8c0-2.1-0.1-3.4-0.2-4.8l4.3-1
		c0.2,0.9,0.2,1.9,0.2,4.2v12.5c0,2.7,0,3.1,0.3,3.6c0.2,0.3,0.5,0.4,0.8,0.4c0.2,0,0.2,0,0.5-0.1l0.7,2.5
		C70.3,23.4,69.4,23.5,68.5,23.5z"/>
	<path fill="#FFFFFF" d="M75.9,16.5v0.1c0,2.5,1.2,3.9,3.4,3.9c1.4,0,2.8-0.5,4.1-1.6l1.6,2.5c-1.8,1.5-3.8,2.2-6,2.2
		c-4.6,0-7.5-3.2-7.5-8.3c0-2.9,0.6-4.8,2-6.3c1.3-1.5,2.9-2.2,5-2.2c1.8,0,3.6,0.6,4.6,1.7c1.5,1.5,2.1,3.7,2.1,7v1L75.9,16.5
		L75.9,16.5z M80.8,13.2c0-1.2-0.1-1.8-0.5-2.4c-0.4-0.6-1-0.9-1.8-0.9c-1.6,0-2.5,1.2-2.5,3.5v0.1h4.8V13.2z"/>
	<path fill="#FFFFFF" d="M97.1,29c-2.2,0-4-1.3-4-4.6v-5.4c0-1.9-2.6-2.2-3.4-2.2v-3.6c0.8,0,3.4-0.2,3.4-2.2V5.8
		c0-3.2,1.7-4.5,4-4.5h3.3v3.6h-1.5c-1.9,0-2,1.2-2,2v5c0,2.9-1.8,3.1-3.1,3.2v0.1c1.3,0.1,3.1,0.3,3.1,3.2v5.1c0,0.8,0.1,2,2,2h1.5
		V29H97.1L97.1,29z"/>
	<path fill="#FFFFFF" d="M111.5,22.5c-1.1,0.7-2.4,1-3.9,1c-4.4,0-7-3.1-7-8.2c0-3.7,1.4-6.1,3.3-7.4c1.1-0.7,2.6-1.2,4-1.2
		c1.1,0,2.2,0.2,3.1,0.7c0.6,0.3,0.9,0.5,1.6,1.1l-2,2.7c-0.8-0.8-1.7-1.2-2.5-1.2c-1.9,0-2.7,1.6-2.7,5.4c0,2.1,0.3,3.3,0.8,4
		c0.4,0.6,1.2,0.9,1.9,0.9c1,0,1.8-0.4,2.9-1.3l0.2-0.2l1.9,2.5C112.3,21.9,112.1,22.2,111.5,22.5z"/>
	<path fill="#FFFFFF" d="M126,21.3c-1.2,1.4-2.8,2.2-5.3,2.2c-4.3,0-7.2-3.2-7.2-8.3c0-5,2.9-8.4,7.2-8.4c2.3,0,4.1,0.8,5.4,2.4
		c1.3,1.5,1.8,3.2,1.8,5.8C128,17.8,127.3,19.7,126,21.3z M122.6,10.8c-0.4-0.5-1.1-0.8-1.8-0.8c-1,0-1.8,0.6-2.2,1.6
		c-0.3,0.8-0.4,2-0.4,3.6c0,1.8,0.2,3.2,0.5,4c0.4,0.9,1.3,1.3,2.1,1.3c1.8,0,2.6-1.6,2.6-5.4C123.4,12.9,123.1,11.5,122.6,10.8z"/>
	<path fill="#FFFFFF" d="M140.2,23.1c-0.1-0.2-0.2-0.5-0.2-0.9c-1,0.9-2.2,1.3-3.7,1.3c-4.1,0-6.6-3.2-6.6-8.1c0-5,2.8-8.4,6.8-8.4
		c1.2,0,2.1,0.3,2.8,0.9c-0.1-0.3-0.1-1.4-0.1-2.4V0l4.1,0.7v16.6c0,3.9,0.3,5.2,0.6,5.8L140.2,23.1L140.2,23.1z M139.3,11.4
		c-0.8-0.7-1.5-1-2.3-1c-1.9,0-2.7,1.6-2.7,5.1c0,3.4,0.7,4.6,2.9,4.6c0.8,0,1.7-0.5,2.1-1L139.3,11.4L139.3,11.4z"/>
	<path fill="#FFFFFF" d="M150.5,16.5v0.1c0,2.5,1.2,3.9,3.4,3.9c1.4,0,2.8-0.5,4.1-1.6l1.6,2.5c-1.8,1.5-3.8,2.2-6,2.2
		c-4.6,0-7.5-3.2-7.5-8.3c0-2.9,0.6-4.8,2-6.3c1.3-1.5,2.9-2.2,5-2.2c1.8,0,3.6,0.6,4.6,1.7c1.5,1.5,2.1,3.7,2.1,7v1L150.5,16.5
		L150.5,16.5z M155.4,13.2c0-1.2-0.1-1.8-0.5-2.4c-0.4-0.6-1-0.9-1.8-0.9c-1.6,0-2.5,1.2-2.5,3.5v0.1h4.8L155.4,13.2L155.4,13.2z"/>
	<path fill="#FFFFFF" d="M167.6,19.1v5.4c0,3.2-1.7,4.5-4,4.5h-3.3v-3.6h1.5c1.9,0,2-1.2,2-2v-5c0-2.9,1.8-3.1,3.1-3.2v-0.1
		c-1.3-0.1-3.1-0.3-3.1-3.2V6.9c0-0.8-0.1-2-2-2h-1.5V1.3h3.4c2.1,0,3.9,1.3,3.9,4.6v5.4c0,1.9,2.5,2.2,3.4,2.2V17
		C170.1,17,167.6,17.2,167.6,19.1z"/>
</g>
</svg>
