<?xml version="1.0" encoding="utf-8"?>
<!-- Generator: Adobe Illustrator 18.1.1, SVG Export Plug-In . SVG Version: 6.00 Build 0)  -->
<!DOCTYPE svg PUBLIC "-//W3C//DTD SVG 1.1//EN" "http://www.w3.org/Graphics/SVG/1.1/DTD/svg11.dtd">
<svg version="1.1" id="Layer_1" xmlns="http://www.w3.org/2000/svg" xmlns:xlink="http://www.w3.org/1999/xlink" x="0px" y="0px"
	 width="375.3px" height="32px" viewBox="0 0 375.3 32" enable-background="new 0 0 375.3 32" xml:space="preserve">
<g opacity="0.2">
	<path d="M305.5,12.3c0,9.2-10,18.8-10,18.8c-1.4,1.3-2.2,1.2-3.6,0c0,0-9.9-9.6-9.9-18.8C282,5.5,287.3,0,293.7,0
		S305.5,5.5,305.5,12.3z M299.3,11.7c0-3.1-2.5-5.6-5.6-5.6s-5.5,2.5-5.5,5.6c0,3.1,2.5,5.5,5.5,5.5S299.3,14.8,299.3,11.7z"/>
</g>
<g opacity="0.2">
	<path d="M331,18.5c0.2-0.3,0.5-0.4,0.9-0.4c0.2,0,0.6,0.2,0.6,0.2l7.4,3.7c0.4,0.2,0.6,0.6,0.6,1c-0.1,1.8-0.9,3.7-2.1,4.8
		c-1.4,1.4-3.3,2-5.5,2c-4.5,0-10.2-2.6-14.9-7.4c-7.1-7.1-9.6-16.4-5.5-20.6c1.2-1.2,3.2-1.8,5-1.9c0.4,0,0.8,0.2,1,0.6l4.1,7.4
		c0.1,0.2,0.2,0.4,0.2,0.6c0,0.3-0.2,0.6-0.4,0.9l-3.2,3.1c-0.3,0.4-0.4,0.9-0.1,1.3c0.9,1.5,2,2.9,3.3,4.2c1.3,1.3,2.8,2.5,4.2,3.4
		c0.4,0.3,1,0.2,1.3-0.2L331,18.5z"/>
</g>
<g opacity="0.2">
	<path d="M345.5,3.6V2c0-0.5,0.4-1,0.9-1c4.6-0.7,9.3-1,14-1s9.4,0.3,14,1c0.5,0.1,0.9,0.5,0.9,1v1.5c-0.1,0.4-0.4,1-1.2,1.8
		l-11.4,8.6c-0.6,0.5-1.5,0.7-2.4,0.7s-1.8-0.2-2.4-0.7l-11.4-8.6C345.8,4.6,345.6,3.9,345.5,3.6z M375.3,8.7v14.9
		c0,0.5-0.4,1-0.9,1c-4.6,0.7-9.3,1-14,1s-9.4-0.3-14-1c-0.5-0.1-0.9-0.5-0.9-1V8.7l10.6,8.1c1.2,0.9,2.8,1.3,4.4,1.3
		s3.1-0.4,4.4-1.3L375.3,8.7z"/>
</g>
<g>
	<g>
		<path fill="#6B7482" d="M277,13.8c0,0.1-0.1,0.2-0.1,0.3l-2.9,2.9c-0.1,0.1-0.2,0.1-0.3,0.1s-0.2-0.1-0.3-0.1l-5-5l-5,5
			c-0.1,0.1-0.2,0.1-0.3,0.1c-0.1,0-0.2-0.1-0.3-0.1l-2.9-2.9c-0.1-0.1-0.1-0.2-0.1-0.3c0-0.1,0.1-0.2,0.1-0.3l5-5l-5-5
			c-0.1-0.1-0.1-0.2-0.1-0.3s0.1-0.2,0.1-0.3l2.9-2.9c0.1-0.1,0.2-0.2,0.3-0.2c0.1,0,0.2,0.1,0.3,0.1l5,5l5-5
			c0.1-0.1,0.2-0.1,0.3-0.1s0.2,0.1,0.3,0.1l2.9,2.9c0.1,0.1,0.1,0.2,0.1,0.3c0,0.1-0.1,0.2-0.1,0.3l-5,5l5,5
			C277,13.6,277,13.7,277,13.8z"/>
	</g>
	<g>
		<path fill="#6B7482" d="M277,13.8c0,0.1-0.1,0.2-0.1,0.3l-2.9,2.9c-0.1,0.1-0.2,0.1-0.3,0.1s-0.2-0.1-0.3-0.1l-5-5l-5,5
			c-0.1,0.1-0.2,0.1-0.3,0.1c-0.1,0-0.2-0.1-0.3-0.1l-2.9-2.9c-0.1-0.1-0.1-0.2-0.1-0.3c0-0.1,0.1-0.2,0.1-0.3l5-5l-5-5
			c-0.1-0.1-0.1-0.2-0.1-0.3s0.1-0.2,0.1-0.3l2.9-2.9c0.1-0.1,0.2-0.2,0.3-0.2c0.1,0,0.2,0.1,0.3,0.1l5,5l5-5
			c0.1-0.1,0.2-0.1,0.3-0.1s0.2,0.1,0.3,0.1l2.9,2.9c0.1,0.1,0.1,0.2,0.1,0.3c0,0.1-0.1,0.2-0.1,0.3l-5,5l5,5
			C277,13.6,277,13.7,277,13.8z"/>
	</g>
</g>
<g>
	<path fill="#FFFFFF" d="M11.7,21.7c-1.1,1.2-2.5,1.8-4.3,1.8c-1.2,0-2.4-0.3-3.3-0.8c0.1,0.4,0.1,0.8,0.1,1.3v5l-4,1.1V11.5
		c0-2.1,0-2.7-0.2-4l3.7-0.7c0.1,0.6,0.2,1,0.2,1.5c0.7-0.9,2.3-1.5,3.9-1.5c1.1,0,2.3,0.4,3.1,1c1.7,1.2,3,3.2,3,6.9
		C13.9,18.1,13.4,19.9,11.7,21.7z M9,11.6c-0.3-0.9-1-1.3-2-1.3s-2,0.4-2.8,1.2v7.8c0.6,0.5,1.5,0.9,2.3,0.9c2.1,0,2.9-1.4,2.9-5.1
		C9.4,13.6,9.3,12.4,9,11.6z"/>
	<path fill="#FFFFFF" d="M20,16.5v0.1c0,2.5,1.2,3.9,3.4,3.9c1.4,0,2.8-0.5,4.1-1.6l1.6,2.5c-1.8,1.5-3.8,2.2-6,2.2
		c-4.6,0-7.5-3.2-7.5-8.3c0-2.9,0.6-4.8,2-6.3c1.3-1.5,2.9-2.2,5-2.2c1.8,0,3.6,0.6,4.6,1.7c1.5,1.5,2.1,3.7,2.1,7v1H20L20,16.5z
		 M24.9,13.2c0-1.2-0.1-1.8-0.5-2.4s-1-0.9-1.8-0.9c-1.6,0-2.5,1.2-2.5,3.5v0.1h4.8V13.2z"/>
	<path fill="#FFFFFF" d="M42.5,22.2c-1.1,0.9-2.2,1.2-3.5,1.2c-1.6,0-2.7-0.5-3.6-1.5c-0.1,0.6-0.2,0.7-0.4,1.2h-3.7
		c0.3-0.7,0.4-1.2,0.4-3.4V4.9c0-2-0.1-3-0.3-3.9l4.3-1c0.1,1.1,0.2,1.7,0.2,2.8v3.8c0,0.5,0,1.2-0.1,1.4c0.8-0.9,1.9-1.3,3.4-1.3
		c3.9,0,6.3,3.1,6.3,8.1C45.5,18.1,44.5,20.6,42.5,22.2z M40.5,12.2c-0.3-1.4-1.2-2-2.3-2s-1.8,0.7-2.4,1.3v7.4c0.6,0.5,1.2,1,2.3,1
		c1,0,1.7-0.4,2-1.2c0.4-0.9,0.5-1.7,0.5-3.7C40.7,13.5,40.7,12.9,40.5,12.2z"/>
	<path fill="#FFFFFF" d="M58.8,22.2c-1.1,0.9-2.2,1.2-3.5,1.2c-1.6,0-2.7-0.5-3.6-1.5c-0.1,0.6-0.2,0.7-0.4,1.2h-3.7
		c0.3-0.7,0.4-1.2,0.4-3.4V4.9c0-2-0.1-3-0.3-3.9L52,0c0.1,1.1,0.2,1.7,0.2,2.8v3.8c0,0.5,0,1.2-0.1,1.4c0.8-0.9,1.9-1.3,3.4-1.3
		c3.9,0,6.3,3.1,6.3,8.1C61.8,18.1,60.8,20.6,58.8,22.2z M56.9,12.2c-0.3-1.4-1.2-2-2.3-2s-1.8,0.7-2.4,1.3v7.4c0.6,0.5,1.2,1,2.3,1
		c1,0,1.7-0.4,2-1.2C56.9,17.8,57,17,57,15C57.1,13.5,57,12.9,56.9,12.2z"/>
	<path fill="#FFFFFF" d="M68.4,23.5c-1.8,0-3.2-0.8-3.7-2.2c-0.3-0.8-0.4-1.3-0.4-3.6V5.8c0-2.1-0.1-3.4-0.2-4.8l4.3-1
		c0.2,0.9,0.2,1.9,0.2,4.2v12.5c0,2.7,0,3.1,0.3,3.6c0.2,0.3,0.5,0.4,0.8,0.4c0.2,0,0.2,0,0.5-0.1l0.7,2.5
		C70.2,23.4,69.3,23.5,68.4,23.5z"/>
	<path fill="#FFFFFF" d="M75.8,16.5v0.1c0,2.5,1.2,3.9,3.4,3.9c1.4,0,2.8-0.5,4.1-1.6l1.6,2.5c-1.8,1.5-3.8,2.2-6,2.2
		c-4.6,0-7.5-3.2-7.5-8.3c0-2.9,0.6-4.8,2-6.3c1.3-1.5,2.9-2.2,5-2.2c1.8,0,3.6,0.6,4.6,1.7c1.5,1.5,2.1,3.7,2.1,7v1H75.8L75.8,16.5
		z M80.7,13.2c0-1.2-0.1-1.8-0.5-2.4s-1-0.9-1.8-0.9c-1.6,0-2.5,1.2-2.5,3.5v0.1h4.8V13.2z"/>
	<path fill="#FFFFFF" d="M97,29c-2.2,0-4-1.3-4-4.6V19c0-1.9-2.6-2.2-3.4-2.2v-3.6c0.8,0,3.4-0.2,3.4-2.2V5.8c0-3.2,1.7-4.5,4-4.5
		h3.3v3.6h-1.5c-1.9,0-2,1.2-2,2v5c0,2.9-1.8,3.1-3.1,3.2v0.1c1.3,0.1,3.1,0.3,3.1,3.2v5.1c0,0.8,0.1,2,2,2h1.5V29H97L97,29z"/>
	<path fill="#FFFFFF" d="M111.4,22.5c-1.1,0.7-2.4,1-3.9,1c-4.4,0-7-3.1-7-8.2c0-3.7,1.4-6.1,3.3-7.4c1.1-0.7,2.6-1.2,4-1.2
		c1.1,0,2.2,0.2,3.1,0.7c0.6,0.3,0.9,0.5,1.6,1.1l-2,2.7c-0.8-0.8-1.7-1.2-2.5-1.2c-1.9,0-2.7,1.6-2.7,5.4c0,2.1,0.3,3.3,0.8,4
		c0.4,0.6,1.2,0.9,1.9,0.9c1,0,1.8-0.4,2.9-1.3l0.2-0.2l1.9,2.5C112.2,21.9,112,22.2,111.4,22.5z"/>
	<path fill="#FFFFFF" d="M125.9,21.3c-1.2,1.4-2.8,2.2-5.3,2.2c-4.3,0-7.2-3.2-7.2-8.3c0-5,2.9-8.4,7.2-8.4c2.3,0,4.1,0.8,5.4,2.4
		c1.3,1.5,1.8,3.2,1.8,5.8C127.9,17.8,127.2,19.7,125.9,21.3z M122.5,10.8c-0.4-0.5-1.1-0.8-1.8-0.8c-1,0-1.8,0.6-2.2,1.6
		c-0.3,0.8-0.4,2-0.4,3.6c0,1.8,0.2,3.2,0.5,4c0.4,0.9,1.3,1.3,2.1,1.3c1.8,0,2.6-1.6,2.6-5.4C123.3,12.9,123,11.5,122.5,10.8z"/>
	<path fill="#FFFFFF" d="M140.1,23.1c-0.1-0.2-0.2-0.5-0.2-0.9c-1,0.9-2.2,1.3-3.7,1.3c-4.1,0-6.6-3.2-6.6-8.1c0-5,2.8-8.4,6.8-8.4
		c1.2,0,2.1,0.3,2.8,0.9c-0.1-0.3-0.1-1.4-0.1-2.4V0l4.1,0.7v16.6c0,3.9,0.3,5.2,0.6,5.8L140.1,23.1L140.1,23.1z M139.2,11.4
		c-0.8-0.7-1.5-1-2.3-1c-1.9,0-2.7,1.6-2.7,5.1c0,3.4,0.7,4.6,2.9,4.6c0.8,0,1.7-0.5,2.1-1V11.4L139.2,11.4z"/>
	<path fill="#FFFFFF" d="M150.4,16.5v0.1c0,2.5,1.2,3.9,3.4,3.9c1.4,0,2.8-0.5,4.1-1.6l1.6,2.5c-1.8,1.5-3.8,2.2-6,2.2
		c-4.6,0-7.5-3.2-7.5-8.3c0-2.9,0.6-4.8,2-6.3c1.3-1.5,2.9-2.2,5-2.2c1.8,0,3.6,0.6,4.6,1.7c1.5,1.5,2.1,3.7,2.1,7v1H150.4
		L150.4,16.5z M155.3,13.2c0-1.2-0.1-1.8-0.5-2.4s-1-0.9-1.8-0.9c-1.6,0-2.5,1.2-2.5,3.5v0.1h4.8V13.2L155.3,13.2z"/>
	<path fill="#FFFFFF" d="M167.5,19.1v5.4c0,3.2-1.7,4.5-4,4.5h-3.3v-3.6h1.5c1.9,0,2-1.2,2-2v-5c0-2.9,1.8-3.1,3.1-3.2v-0.1
		c-1.3-0.1-3.1-0.3-3.1-3.2v-5c0-0.8-0.1-2-2-2h-1.5V1.3h3.4c2.1,0,3.9,1.3,3.9,4.6v5.4c0,1.9,2.5,2.2,3.4,2.2V17
		C170,17,167.5,17.2,167.5,19.1z"/>
</g>
<g>
	<path fill="#EE4F7E" d="M228.3,5.2c0,0.2,0,0.5,0,0.7c0,7-5.4,15.1-15.2,15.1c-3,0-5.8-0.7-8.2-2.2c0.4,0.1,0.8,0.1,1.3,0.1
		c2.5,0,4.8-1.1,6.6-2.5c-2.3,0-4.3-1.6-5-3.7c0.3,0.1,0.7,0.1,1,0.1c0.5,0,1-0.1,1.4-0.2c-2.3-0.4-4.1-2.6-4.1-5.2c0,0,0,0,0-0.1
		c0.7,0.5,1.5,0.7,2.4,0.7c-1.5-0.9-2.4-2.5-2.4-4.4c0-1,0.3-1.8,0.7-2.6c2.7,3.2,6.6,5.2,11,5.4c-0.1-0.4-0.1-0.8-0.1-1.2
		c0-2.8,2.3-5.2,5.3-5.2c1.5,0,2.9,0.7,3.9,1.7c1.2-0.2,2.3-0.7,3.4-1.3c-0.4,1.2-1.2,2.3-2.3,2.9c1-0.1,2-0.4,3-0.8
		C230.3,3.6,229.4,4.5,228.3,5.2z"/>
</g>
<g>
	<path fill="#EE4F7E" d="M196.4,0c2,0,3.5,1.6,3.5,4.1c0,6.4-9.5,16.9-12.7,16.9c-2.8,0-3.8-3-4.3-4.5l-3-9.5c-0.4-1.2-1-1.5-3,0
		l-1-1.2c0,0,4.5-5.8,7.5-5.8s3.1,4.5,3.5,7c0.4,2.5,1.2,6.5,2.2,6.5s3.8-4.5,3.8-6.5c0-1.5-1-2.5-3-1.5C190.9,1.5,194.4,0,196.4,0z
		"/>
</g>
<g>
	<path fill="#6B7482" d="M255,3.9c0,0.2-0.2,0.4-0.4,0.4h-18.2c-0.2,0-0.4-0.2-0.4-0.4V0.4c0-0.2,0.2-0.4,0.4-0.4h18.2
		c0.2,0,0.4,0.2,0.4,0.4V3.9z M255,10.8c0,0.2-0.2,0.4-0.4,0.4h-18.2c-0.2-0.1-0.4-0.2-0.4-0.4V7.3c0-0.2,0.2-0.4,0.4-0.4h18.2
		c0.2,0,0.4,0.2,0.4,0.4V10.8z M255,17.6c0,0.2-0.2,0.4-0.4,0.4h-18.2c-0.2,0-0.4-0.2-0.4-0.4v-3.5c0-0.2,0.2-0.4,0.4-0.4h18.2
		c0.2,0,0.4,0.2,0.4,0.4V17.6z"/>
</g>
</svg>
