<svg xmlns="http://www.w3.org/2000/svg" width="375.3" height="32" viewBox="0 0 375.3 32"><path d="M305.5 12.3c0 9.2-10 18.8-10 18.8-1.4 1.3-2.2 1.2-3.6 0 0 0-9.9-9.6-9.9-18.8C282 5.5 287.3 0 293.7 0s11.8 5.5 11.8 12.3zm-6.2-.6c0-3.1-2.5-5.6-5.6-5.6s-5.5 2.5-5.5 5.6c0 3.1 2.5 5.5 5.5 5.5s5.6-2.4 5.6-5.5zM331 18.5c.2-.3.5-.4.9-.4.2 0 .6.2.6.2l7.4 3.7c.4.2.6.6.6 1-.1 1.8-.9 3.7-2.1 4.8-1.4 1.4-3.3 2-5.5 2-4.5 0-10.2-2.6-14.9-7.4-7.1-7.1-9.6-16.4-5.5-20.6 1.2-1.2 3.2-1.8 5-1.9.4 0 .8.2 1 .6l4.1 7.4c.1.2.2.4.2.6 0 .3-.2.6-.4.9l-3.2 3.1c-.3.4-.4.9-.1 1.3.9 1.5 2 2.9 3.3 4.2 1.3 1.3 2.8 2.5 4.2 3.4.4.3 1 .2 1.3-.2l3.1-2.7zM345.5 3.6V2c0-.5.4-1 .9-1 4.6-.7 9.3-1 14-1s9.4.3 14 1c.5.1.9.5.9 1v1.5c-.1.4-.4 1-1.2 1.8l-11.4 8.6c-.6.5-1.5.7-2.4.7s-1.8-.2-2.4-.7l-11.4-8.6c-.7-.7-.9-1.4-1-1.7zm29.8 5.1v14.9c0 .5-.4 1-.9 1-4.6.7-9.3 1-14 1s-9.4-.3-14-1c-.5-.1-.9-.5-.9-1V8.7l10.6 8.1c1.2.9 2.8 1.3 4.4 1.3s3.1-.4 4.4-1.3l10.4-8.1z" opacity=".2"/><path fill="#6B7482" d="M277 13.8c0 .1-.1.2-.1.3L274 17c-.1.1-.2.1-.3.1s-.2-.1-.3-.1l-5-5-5 5c-.1.1-.2.1-.3.1-.1 0-.2-.1-.3-.1l-2.9-2.9c-.1-.1-.1-.2-.1-.3 0-.1.1-.2.1-.3l5-5-5-5c-.1-.1-.1-.2-.1-.3s.1-.2.1-.3l2.9-2.9c.1-.1.2-.2.3-.2.1 0 .2.1.3.1l5 5 5-5c.1-.1.2-.1.3-.1s.2.1.3.1l2.9 2.9c.1.1.1.2.1.3 0 .1-.1.2-.1.3l-5 5 5 5c.1.2.1.3.1.4zM277 13.8c0 .1-.1.2-.1.3L274 17c-.1.1-.2.1-.3.1s-.2-.1-.3-.1l-5-5-5 5c-.1.1-.2.1-.3.1-.1 0-.2-.1-.3-.1l-2.9-2.9c-.1-.1-.1-.2-.1-.3 0-.1.1-.2.1-.3l5-5-5-5c-.1-.1-.1-.2-.1-.3s.1-.2.1-.3l2.9-2.9c.1-.1.2-.2.3-.2.1 0 .2.1.3.1l5 5 5-5c.1-.1.2-.1.3-.1s.2.1.3.1l2.9 2.9c.1.1.1.2.1.3 0 .1-.1.2-.1.3l-5 5 5 5c.1.2.1.3.1.4z"/><g fill="#fff"><path d="M11.7 21.7c-1.1 1.2-2.5 1.8-4.3 1.8-1.2 0-2.4-.3-3.3-.8.1.4.1.8.1 1.3v5l-4 1.1V11.5c0-2.1 0-2.7-.2-4l3.7-.7c.1.6.2 1 .2 1.5.7-.9 2.3-1.5 3.9-1.5 1.1 0 2.3.4 3.1 1 1.7 1.2 3 3.2 3 6.9 0 3.4-.5 5.2-2.2 7zM9 11.6c-.3-.9-1-1.3-2-1.3s-2 .4-2.8 1.2v7.8c.6.5 1.5.9 2.3.9 2.1 0 2.9-1.4 2.9-5.1 0-1.5-.1-2.7-.4-3.5zM20 16.5v.1c0 2.5 1.2 3.9 3.4 3.9 1.4 0 2.8-.5 4.1-1.6l1.6 2.5c-1.8 1.5-3.8 2.2-6 2.2-4.6 0-7.5-3.2-7.5-8.3 0-2.9.6-4.8 2-6.3 1.3-1.5 2.9-2.2 5-2.2 1.8 0 3.6.6 4.6 1.7 1.5 1.5 2.1 3.7 2.1 7v1H20zm4.9-3.3c0-1.2-.1-1.8-.5-2.4s-1-.9-1.8-.9c-1.6 0-2.5 1.2-2.5 3.5v.1h4.8v-.3zM42.5 22.2c-1.1.9-2.2 1.2-3.5 1.2-1.6 0-2.7-.5-3.6-1.5-.1.6-.2.7-.4 1.2h-3.7c.3-.7.4-1.2.4-3.4V4.9c0-2-.1-3-.3-3.9l4.3-1c.1 1.1.2 1.7.2 2.8v3.8c0 .5 0 1.2-.1 1.4.8-.9 1.9-1.3 3.4-1.3 3.9 0 6.3 3.1 6.3 8.1 0 3.3-1 5.8-3 7.4zm-2-10c-.3-1.4-1.2-2-2.3-2s-1.8.7-2.4 1.3v7.4c.6.5 1.2 1 2.3 1 1 0 1.7-.4 2-1.2.4-.9.5-1.7.5-3.7.1-1.5.1-2.1-.1-2.8zM58.8 22.2c-1.1.9-2.2 1.2-3.5 1.2-1.6 0-2.7-.5-3.6-1.5-.1.6-.2.7-.4 1.2h-3.7c.3-.7.4-1.2.4-3.4V4.9c0-2-.1-3-.3-3.9L52 0c.1 1.1.2 1.7.2 2.8v3.8c0 .5 0 1.2-.1 1.4.8-.9 1.9-1.3 3.4-1.3 3.9 0 6.3 3.1 6.3 8.1 0 3.3-1 5.8-3 7.4zm-1.9-10c-.3-1.4-1.2-2-2.3-2s-1.8.7-2.4 1.3v7.4c.6.5 1.2 1 2.3 1 1 0 1.7-.4 2-1.2.4-.9.5-1.7.5-3.7.1-1.5 0-2.1-.1-2.8zM68.4 23.5c-1.8 0-3.2-.8-3.7-2.2-.3-.8-.4-1.3-.4-3.6V5.8c0-2.1-.1-3.4-.2-4.8l4.3-1c.2.9.2 1.9.2 4.2v12.5c0 2.7 0 3.1.3 3.6.2.3.5.4.8.4.2 0 .2 0 .5-.1l.7 2.5c-.7.3-1.6.4-2.5.4zM75.8 16.5v.1c0 2.5 1.2 3.9 3.4 3.9 1.4 0 2.8-.5 4.1-1.6l1.6 2.5c-1.8 1.5-3.8 2.2-6 2.2-4.6 0-7.5-3.2-7.5-8.3 0-2.9.6-4.8 2-6.3 1.3-1.5 2.9-2.2 5-2.2 1.8 0 3.6.6 4.6 1.7 1.5 1.5 2.1 3.7 2.1 7v1h-9.3zm4.9-3.3c0-1.2-.1-1.8-.5-2.4s-1-.9-1.8-.9c-1.6 0-2.5 1.2-2.5 3.5v.1h4.8v-.3zM97 29c-2.2 0-4-1.3-4-4.6V19c0-1.9-2.6-2.2-3.4-2.2v-3.6c.8 0 3.4-.2 3.4-2.2V5.8c0-3.2 1.7-4.5 4-4.5h3.3v3.6h-1.5c-1.9 0-2 1.2-2 2v5c0 2.9-1.8 3.1-3.1 3.2v.1c1.3.1 3.1.3 3.1 3.2v5.1c0 .8.1 2 2 2h1.5V29H97zM111.4 22.5c-1.1.7-2.4 1-3.9 1-4.4 0-7-3.1-7-8.2 0-3.7 1.4-6.1 3.3-7.4 1.1-.7 2.6-1.2 4-1.2 1.1 0 2.2.2 3.1.7.6.3.9.5 1.6 1.1l-2 2.7c-.8-.8-1.7-1.2-2.5-1.2-1.9 0-2.7 1.6-2.7 5.4 0 2.1.3 3.3.8 4 .4.6 1.2.9 1.9.9 1 0 1.8-.4 2.9-1.3l.2-.2 1.9 2.5c-.8.6-1 .9-1.6 1.2zM125.9 21.3c-1.2 1.4-2.8 2.2-5.3 2.2-4.3 0-7.2-3.2-7.2-8.3 0-5 2.9-8.4 7.2-8.4 2.3 0 4.1.8 5.4 2.4 1.3 1.5 1.8 3.2 1.8 5.8.1 2.8-.6 4.7-1.9 6.3zm-3.4-10.5c-.4-.5-1.1-.8-1.8-.8-1 0-1.8.6-2.2 1.6-.3.8-.4 2-.4 3.6 0 1.8.2 3.2.5 4 .4.9 1.3 1.3 2.1 1.3 1.8 0 2.6-1.6 2.6-5.4 0-2.2-.3-3.6-.8-4.3zM140.1 23.1c-.1-.2-.2-.5-.2-.9-1 .9-2.2 1.3-3.7 1.3-4.1 0-6.6-3.2-6.6-8.1 0-5 2.8-8.4 6.8-8.4 1.2 0 2.1.3 2.8.9-.1-.3-.1-1.4-.1-2.4V0l4.1.7v16.6c0 3.9.3 5.2.6 5.8h-3.7zm-.9-11.7c-.8-.7-1.5-1-2.3-1-1.9 0-2.7 1.6-2.7 5.1 0 3.4.7 4.6 2.9 4.6.8 0 1.7-.5 2.1-1v-7.7zM150.4 16.5v.1c0 2.5 1.2 3.9 3.4 3.9 1.4 0 2.8-.5 4.1-1.6l1.6 2.5c-1.8 1.5-3.8 2.2-6 2.2-4.6 0-7.5-3.2-7.5-8.3 0-2.9.6-4.8 2-6.3 1.3-1.5 2.9-2.2 5-2.2 1.8 0 3.6.6 4.6 1.7 1.5 1.5 2.1 3.7 2.1 7v1h-9.3zm4.9-3.3c0-1.2-.1-1.8-.5-2.4s-1-.9-1.8-.9c-1.6 0-2.5 1.2-2.5 3.5v.1h4.8v-.3zM167.5 19.1v5.4c0 3.2-1.7 4.5-4 4.5h-3.3v-3.6h1.5c1.9 0 2-1.2 2-2v-5c0-2.9 1.8-3.1 3.1-3.2v-.1c-1.3-.1-3.1-.3-3.1-3.2v-5c0-.8-.1-2-2-2h-1.5V1.3h3.4c2.1 0 3.9 1.3 3.9 4.6v5.4c0 1.9 2.5 2.2 3.4 2.2V17c-.9 0-3.4.2-3.4 2.1z"/></g><path fill="#EE4F7E" d="M228.3 5.2v.7c0 7-5.4 15.1-15.2 15.1-3 0-5.8-.7-8.2-2.2.4.1.8.1 1.3.1 2.5 0 4.8-1.1 6.6-2.5-2.3 0-4.3-1.6-5-3.7.3.1.7.1 1 .1.5 0 1-.1 1.4-.2-2.3-.4-4.1-2.6-4.1-5.2v-.1c.7.5 1.5.7 2.4.7-1.5-.9-2.4-2.5-2.4-4.4 0-1 .3-1.8.7-2.6 2.7 3.2 6.6 5.2 11 5.4-.1-.4-.1-.8-.1-1.2 0-2.8 2.3-5.2 5.3-5.2 1.5 0 2.9.7 3.9 1.7 1.2-.2 2.3-.7 3.4-1.3-.4 1.2-1.2 2.3-2.3 2.9 1-.1 2-.4 3-.8-.7 1.1-1.6 2-2.7 2.7zM196.4 0c2 0 3.5 1.6 3.5 4.1 0 6.4-9.5 16.9-12.7 16.9-2.8 0-3.8-3-4.3-4.5l-3-9.5c-.4-1.2-1-1.5-3 0l-1-1.2s4.5-5.8 7.5-5.8 3.1 4.5 3.5 7c.4 2.5 1.2 6.5 2.2 6.5s3.8-4.5 3.8-6.5c0-1.5-1-2.5-3-1.5 1-4 4.5-5.5 6.5-5.5z"/><path fill="#6B7482" d="M255 3.9c0 .2-.2.4-.4.4h-18.2c-.2 0-.4-.2-.4-.4V.4c0-.2.2-.4.4-.4h18.2c.2 0 .4.2.4.4v3.5zm0 6.9c0 .2-.2.4-.4.4h-18.2c-.2-.1-.4-.2-.4-.4V7.3c0-.2.2-.4.4-.4h18.2c.2 0 .4.2.4.4v3.5zm0 6.8c0 .2-.2.4-.4.4h-18.2c-.2 0-.4-.2-.4-.4v-3.5c0-.2.2-.4.4-.4h18.2c.2 0 .4.2.4.4v3.5z"/></svg>