<?xml version="1.0" encoding="utf-8"?>
<!-- Generator: Adobe Illustrator 18.1.1, SVG Export Plug-In . SVG Version: 6.00 Build 0)  -->
<svg version="1.1" id="Layer_1" xmlns="http://www.w3.org/2000/svg" xmlns:xlink="http://www.w3.org/1999/xlink" x="0px" y="0px"
	 width="405.4px" height="35.7px" viewBox="-411 281.8 405.4 35.7" enable-background="new -411 281.8 405.4 35.7"
	 xml:space="preserve">
<symbol  id="_x2E_i-close-grey" viewBox="-8.6 -8.7 17.2 17.3">
	<path fill="#6B7482" d="M8.6-5.3c0-0.1-0.1-0.2-0.1-0.3L5.6-8.5C5.5-8.6,5.4-8.6,5.3-8.6S5.1-8.5,5-8.5l-5,5l-5-5
		c-0.1-0.1-0.2-0.1-0.3-0.1c-0.1,0-0.2,0.1-0.3,0.1l-2.9,2.9c-0.1,0.1-0.1,0.2-0.1,0.3S-8.5-5.1-8.5-5l5,5l-5,5
		c-0.1,0.1-0.1,0.2-0.1,0.3s0.1,0.2,0.1,0.3l2.9,2.9c0.1,0.1,0.2,0.2,0.3,0.2c0.1,0,0.2-0.1,0.3-0.1l5-5l5,5
		c0.1,0.1,0.2,0.1,0.3,0.1s0.2-0.1,0.3-0.1l2.9-2.9c0.1-0.1,0.1-0.2,0.1-0.3S8.5,5.2,8.5,5.1l-5-5l5-5C8.6-5.1,8.6-5.2,8.6-5.3z
		 M8.6-5.3c0-0.1-0.1-0.2-0.1-0.3L5.6-8.5C5.5-8.6,5.4-8.6,5.3-8.6S5.1-8.5,5-8.5l-5,5l-5-5c-0.1-0.1-0.2-0.1-0.3-0.1
		c-0.1,0-0.2,0.1-0.3,0.1l-2.9,2.9c-0.1,0.1-0.1,0.2-0.1,0.3S-8.5-5.1-8.5-5l5,5l-5,5c-0.1,0.1-0.1,0.2-0.1,0.3s0.1,0.2,0.1,0.3
		l2.9,2.9c0.1,0.1,0.2,0.2,0.3,0.2c0.1,0,0.2-0.1,0.3-0.1l5-5l5,5c0.1,0.1,0.2,0.1,0.3,0.1s0.2-0.1,0.3-0.1l2.9-2.9
		c0.1-0.1,0.1-0.2,0.1-0.3S8.5,5.2,8.5,5.1l-5-5l5-5C8.6-5.1,8.6-5.2,8.6-5.3z"/>
</symbol>
<symbol  id="_x2E_i-email-grey" viewBox="-14.9 -12.8 29.8 25.6">
	<path opacity="0.2" enable-background="new    " d="M14,11.8c-4.6,0.7-9.3,1-14,1s-9.4-0.3-14-1c-0.5,0-0.9-0.5-0.9-1V9.2
		c0.1-0.3,0.3-1,1-1.7l11.4-8.6C-1.9-1.6-1-1.8-0.1-1.8c0.9,0,1.8,0.2,2.4,0.7l11.4,8.6c0.8,0.8,1.1,1.4,1.2,1.8v1.5
		C14.9,11.3,14.5,11.7,14,11.8z"/>
	<path opacity="0.2" enable-background="new    " d="M0.1-5.3c-1.6,0-3.2,0.4-4.4,1.3l-10.6,8.1v-14.9c0-0.5,0.4-0.9,0.9-1
		c4.6-0.7,9.3-1,14-1s9.4,0.3,14,1c0.5,0,0.9,0.5,0.9,1V4.1L4.5-4C3.2-4.9,1.7-5.3,0.1-5.3z"/>
</symbol>
<symbol  id="_x2E_i-gbl-logo-white" viewBox="-85.4 -15.1 170.9 30.1">
	<g>
		<path fill="#FFFFFF" d="M-73.8-6.6c-1.1-1.2-2.5-1.8-4.3-1.8c-1.2,0-2.4,0.3-3.3,0.8c0.1-0.4,0.1-0.8,0.1-1.3v-5l-4-1.1V3.6
			c0,2.1,0,2.7-0.2,4l3.7,0.7c0.1-0.6,0.2-1,0.2-1.5c0.7,0.9,2.3,1.5,3.9,1.5c1.1,0,2.3-0.4,3.1-1c1.7-1.2,3-3.2,3-6.9
			C-71.6-3-72.1-4.8-73.8-6.6z M-76.5,3.5c-0.3,0.9-1,1.3-2,1.3s-2-0.4-2.8-1.2v-7.8c0.6-0.5,1.5-0.9,2.3-0.9c2.1,0,2.9,1.4,2.9,5.1
			C-76.1,1.5-76.2,2.7-76.5,3.5z M-65.5-1.4v-0.1c0-2.5,1.2-3.9,3.4-3.9c1.4,0,2.8,0.5,4.1,1.6l1.6-2.5c-1.8-1.5-3.8-2.2-6-2.2
			c-4.6,0-7.5,3.2-7.5,8.3c0,2.9,0.6,4.8,2,6.3c1.3,1.5,2.9,2.2,5,2.2c1.8,0,3.6-0.6,4.6-1.7c1.5-1.5,2.1-3.7,2.1-7v-1H-65.5z
			 M-60.6,1.9c0,1.2-0.1,1.8-0.5,2.4c-0.4,0.6-1,0.9-1.8,0.9c-1.6,0-2.5-1.2-2.5-3.5V1.6h4.8C-60.6,1.6-60.6,1.9-60.6,1.9z M-43-7.1
			c-1.1-0.9-2.2-1.2-3.5-1.2c-1.6,0-2.7,0.5-3.6,1.5c-0.1-0.6-0.2-0.7-0.4-1.2h-3.7c0.3,0.7,0.4,1.2,0.4,3.4v14.8c0,2-0.1,3-0.3,3.9
			l4.3,1c0.1-1.1,0.2-1.7,0.2-2.8V8.5c0-0.5,0-1.2-0.1-1.4c0.8,0.9,1.9,1.3,3.4,1.3c3.9,0,6.3-3.1,6.3-8.1C-40-3-41-5.5-43-7.1z
			 M-45,2.9c-0.3,1.4-1.2,2-2.3,2s-1.8-0.7-2.4-1.3v-7.4c0.6-0.5,1.2-1,2.3-1c1,0,1.7,0.4,2,1.2c0.4,0.9,0.5,1.7,0.5,3.7
			C-44.8,1.6-44.8,2.2-45,2.9z M-26.7-7.1c-1.1-0.9-2.2-1.2-3.5-1.2c-1.6,0-2.7,0.5-3.6,1.5C-33.9-7.4-34-7.5-34.2-8h-3.7
			c0.3,0.7,0.4,1.2,0.4,3.4v14.8c0,2-0.1,3-0.3,3.9l4.3,1c0.1-1.1,0.2-1.7,0.2-2.8V8.5c0-0.5,0-1.2-0.1-1.4c0.8,0.9,1.9,1.3,3.4,1.3
			c3.9,0,6.3-3.1,6.3-8.1C-23.7-3-24.7-5.5-26.7-7.1z M-28.6,2.9c-0.3,1.4-1.2,2-2.3,2s-1.8-0.7-2.4-1.3v-7.4c0.6-0.5,1.2-1,2.3-1
			c1,0,1.7,0.4,2,1.2c0.4,0.9,0.5,1.7,0.5,3.7C-28.4,1.6-28.5,2.2-28.6,2.9z M-17.1-8.4c-1.8,0-3.2,0.8-3.7,2.2
			c-0.3,0.8-0.4,1.3-0.4,3.6V9.3c0,2.1-0.1,3.4-0.2,4.8l4.3,1c0.2-0.9,0.2-1.9,0.2-4.2V-1.6c0-2.7,0-3.1,0.3-3.6
			c0.2-0.3,0.5-0.4,0.8-0.4c0.2,0,0.2,0,0.5,0.1l0.7-2.5C-15.3-8.3-16.2-8.4-17.1-8.4z M-9.7-1.4v-0.1c0-2.5,1.2-3.9,3.4-3.9
			c1.4,0,2.8,0.5,4.1,1.6l1.6-2.5c-1.8-1.5-3.8-2.2-6-2.2c-4.6,0-7.5,3.2-7.5,8.3c0,2.9,0.6,4.8,2,6.3c1.3,1.5,2.9,2.2,5,2.2
			c1.8,0,3.6-0.6,4.6-1.7c1.5-1.5,2.1-3.7,2.1-7v-1C-0.4-1.4-9.7-1.4-9.7-1.4z M-4.8,1.9c0,1.2-0.1,1.8-0.5,2.4s-1,0.9-1.8,0.9
			c-1.6,0-2.5-1.2-2.5-3.5V1.6h4.8V1.9z M11.5-13.9c-2.2,0-4,1.3-4,4.6v5.4c0,1.9-2.6,2.2-3.4,2.2v3.6c0.8,0,3.4,0.2,3.4,2.2v5.2
			c0,3.2,1.7,4.5,4,4.5h3.3v-3.6h-1.5c-1.9,0-2-1.2-2-2v-5c0-2.9-1.8-3.1-3.1-3.2v-0.1c1.3-0.1,3.1-0.3,3.1-3.2v-5.1
			c0-0.8,0.1-2,2-2h1.5v-3.5H11.5z M25.9-7.4c-1.1-0.7-2.4-1-3.9-1c-4.4,0-7,3.1-7,8.2c0,3.7,1.4,6.1,3.3,7.4c1.1,0.7,2.6,1.2,4,1.2
			c1.1,0,2.2-0.2,3.1-0.7C26,7.4,26.3,7.2,27,6.6l-2-2.7c-0.8,0.8-1.7,1.2-2.5,1.2c-1.9,0-2.7-1.6-2.7-5.4c0-2.1,0.3-3.3,0.8-4
			c0.4-0.6,1.2-0.9,1.9-0.9c1,0,1.8,0.4,2.9,1.3l0.2,0.2l1.9-2.5C26.7-6.8,26.5-7.1,25.9-7.4z M40.4-6.2c-1.2-1.4-2.8-2.2-5.3-2.2
			c-4.3,0-7.2,3.2-7.2,8.3c0,5,2.9,8.4,7.2,8.4c2.3,0,4.1-0.8,5.4-2.4c1.3-1.5,1.8-3.2,1.8-5.8C42.4-2.7,41.7-4.6,40.4-6.2z M37,4.3
			c-0.4,0.5-1.1,0.8-1.8,0.8c-1,0-1.8-0.6-2.2-1.6c-0.3-0.8-0.4-2-0.4-3.6c0-1.8,0.2-3.2,0.5-4c0.4-0.9,1.3-1.3,2.1-1.3
			c1.8,0,2.6,1.6,2.6,5.4C37.8,2.2,37.5,3.6,37,4.3z M54.6-8c-0.1,0.2-0.2,0.5-0.2,0.9c-1-0.9-2.2-1.3-3.7-1.3
			c-4.1,0-6.6,3.2-6.6,8.1c0,5,2.8,8.4,6.8,8.4c1.2,0,2.1-0.3,2.8-0.9c-0.1,0.3-0.1,1.4-0.1,2.4v5.5l4.1-0.7V-2.2
			c0-3.9,0.3-5.2,0.6-5.8L54.6-8L54.6-8z M53.7,3.7c-0.8,0.7-1.5,1-2.3,1c-1.9,0-2.7-1.6-2.7-5.1c0-3.4,0.7-4.6,2.9-4.6
			c0.8,0,1.7,0.5,2.1,1V3.7z M64.9-1.4v-0.1c0-2.5,1.2-3.9,3.4-3.9c1.4,0,2.8,0.5,4.1,1.6L74-6.3c-1.8-1.5-3.8-2.2-6-2.2
			c-4.6,0-7.5,3.2-7.5,8.3c0,2.9,0.6,4.8,2,6.3c1.3,1.5,2.9,2.2,5,2.2c1.8,0,3.6-0.6,4.6-1.7c1.5-1.5,2.1-3.7,2.1-7v-1H64.9
			L64.9-1.4z M69.8,1.9c0,1.2-0.1,1.8-0.5,2.4s-1,0.9-1.8,0.9C65.9,5.2,65,4,65,1.7V1.6h4.8V1.9z M82-4v-5.4c0-3.2-1.7-4.5-4-4.5
			h-3.3v3.6h1.5c1.9,0,2,1.2,2,2v5c0,2.9,1.8,3.1,3.1,3.2V0c-1.3,0.1-3.1,0.3-3.1,3.2v5c0,0.8-0.1,2-2,2h-1.5v3.6h3.4
			c2.1,0,3.9-1.3,3.9-4.6V3.8c0-1.9,2.5-2.2,3.4-2.2v-3.5C84.5-1.9,82-2.1,82-4L82-4z"/>
	</g>
</symbol>
<symbol  id="_x2E_i-github-pink" viewBox="-11.3 -11 22.6 22">
	<path fill="#EE4F7E" d="M0,11c-6.2,0-11.3-5-11.3-11.3c0-5,3.2-9.2,7.7-10.7c0.6-0.1,0.8,0.2,0.8,0.5c0,0.3,0,1,0,1.9
		C-5.9-9.2-6.6-7-6.6-7c-0.5,1.3-1.3,1.6-1.3,1.6c-1,0.7,0.1,0.7,0.1,0.7c1.1-0.1,1.7-1.2,1.7-1.2c1-1.7,2.6-1.2,3.3-0.9
		C-2.7-6-2.4-5.5-2.1-5.3C-4.6-5-7.2-4-7.2,0.3c0,1.2,0.4,2.2,1.2,3c-0.1,0.3-0.5,1.4,0.1,3c0,0,0.9,0.3,3.1-1.2
		C-1.9,5.4-1,5.5,0,5.5c1,0,1.9-0.1,2.8-0.4C5,6.6,5.9,6.3,5.9,6.3c0.6-1.6,0.2-2.7,0.1-3c0.7-0.8,1.2-1.8,1.2-3C7.2-4,4.6-5,2-5.3
		c0.4-0.3,0.8-1,0.8-2.1c0-1.5,0-2.7,0-3.1c0-0.3,0.2-0.7,0.8-0.5c4.5,1.5,7.7,5.7,7.7,10.7C11.3,6,6.2,11,0,11z"/>
</symbol>
<symbol  id="_x2E_i-location-grey" viewBox="-11.8 -16 23.5 32">
	<path opacity="0.2" enable-background="new    " d="M0,16c-6.4,0-11.7-5.5-11.7-12.3c0-9.2,9.9-18.8,9.9-18.8
		c1.4-1.2,2.2-1.3,3.6,0c0,0,10,9.6,10,18.8C11.8,10.5,6.4,16,0,16z M0-1.2c-3,0-5.5,2.4-5.5,5.5c0,3.1,2.4,5.6,5.5,5.6
		c3.1,0,5.6-2.5,5.6-5.6C5.6,1.2,3-1.2,0-1.2z"/>
</symbol>
<symbol  id="_x2E_i-menu-grey" viewBox="-9.5 -9 19 18">
	<path fill="#6B7482" d="M9.5,5.1c0-0.2-0.2-0.4-0.4-0.4H-9.1c-0.2,0-0.4,0.2-0.4,0.4v3.5C-9.5,8.8-9.3,9-9.1,9H9.1
		c0.2,0,0.4-0.2,0.4-0.4V5.1z M9.5-1.8c0-0.2-0.2-0.4-0.4-0.4H-9.1C-9.3-2.1-9.5-2-9.5-1.8v3.5c0,0.2,0.2,0.4,0.4,0.4H9.1
		c0.2,0,0.4-0.2,0.4-0.4V-1.8z M9.5-8.6C9.5-8.8,9.3-9,9.1-9H-9.1c-0.2,0-0.4,0.2-0.4,0.4v3.5c0,0.2,0.2,0.4,0.4,0.4H9.1
		c0.2,0,0.4-0.2,0.4-0.4V-8.6z"/>
</symbol>
<symbol  id="_x2E_i-phone-grey" viewBox="-15 -14.9 30 29.9">
	<path opacity="0.2" enable-background="new    " d="M14.4-7.2L7-3.5c0,0-0.4,0.2-0.6,0.2C6-3.3,5.7-3.4,5.5-3.7L2.4-6.4
		C2.1-6.8,1.5-6.9,1.1-6.6c-1.4,0.9-2.9,2.1-4.2,3.4S-5.5-0.5-6.4,1c-0.3,0.4-0.2,0.9,0.1,1.3l3.2,3.1C-2.9,5.7-2.7,6-2.7,6.3
		c0,0.2-0.1,0.4-0.2,0.6L-7,14.3c-0.2,0.4-0.6,0.6-1,0.6c-1.8-0.1-3.8-0.7-5-1.9c-4.1-4.2-1.6-13.5,5.5-20.6
		C-2.8-12.4,2.9-15,7.4-15c2.2,0,4.1,0.6,5.5,2c1.2,1.1,2,3,2.1,4.8C15-7.8,14.8-7.4,14.4-7.2z"/>
</symbol>
<symbol  id="_x2E_i-twitter-pink" viewBox="-13 -10.5 26.1 21">
	<path fill="#EE4F7E" d="M10.3,5.3V4.6c0-7-5.4-15.1-15.2-15.1c-3,0-5.8,0.7-8.2,2.2c0.4-0.1,0.8-0.1,1.3-0.1c2.5,0,4.8,1.1,6.6,2.5
		c-2.3,0-4.3,1.6-5,3.7c0.3-0.1,0.7-0.1,1-0.1c0.5,0,1,0.1,1.4,0.2c-2.3,0.4-4.1,2.6-4.1,5.2v0.1c0.7-0.5,1.5-0.7,2.4-0.7
		C-11,3.4-11.9,5-11.9,6.9c0,1,0.3,1.8,0.7,2.6c2.7-3.2,6.6-5.2,11-5.4c-0.1,0.4-0.1,0.8-0.1,1.2c0,2.8,2.3,5.2,5.3,5.2
		c1.5,0,2.9-0.7,3.9-1.7c1.2,0.2,2.3,0.7,3.4,1.3c-0.4-1.2-1.2-2.3-2.3-2.9c1,0.1,2,0.4,3,0.8C12.3,6.9,11.4,6,10.3,5.3L10.3,5.3z"
		/>
</symbol>
<symbol  id="_x2E_i-vimeo-pink" viewBox="-12 -10.5 24 21">
	<path fill="#EE4F7E" d="M8.5,10.5c2,0,3.5-1.6,3.5-4.1C12,0,2.5-10.5-0.7-10.5c-2.8,0-3.8,3-4.3,4.5l-3,9.5c-0.4,1.2-1,1.5-3,0
		l-1,1.2c0,0,4.5,5.8,7.5,5.8S-1.4,6-1,3.5S0.2-3,1.2-3S5,1.5,5,3.5C5,5,4,6,2,5C3,9,6.5,10.5,8.5,10.5z"/>
</symbol>
<use xlink:href="#_x2E_i-location-grey"  width="23.5" height="32" x="-11.8" y="-16" transform="matrix(1 0 0 -1 -89.4931 297.8989)" overflow="visible"/>
<use xlink:href="#_x2E_i-email-grey"  width="29.8" height="25.6" x="-14.9" y="-12.8" transform="matrix(1 0 0 -1 -22.8431 294.68)" overflow="visible"/>
<use xlink:href="#_x2E_i-phone-grey"  width="30" height="29.9" x="-15" y="-14.9" transform="matrix(1 0 0 -1 -57.7305 296.73)" overflow="visible"/>
<use xlink:href="#_x2E_i-close-grey"  width="17.2" height="17.3" x="-8.6" y="-8.7" transform="matrix(1 0 0 -1 -114.8431 290.43)" overflow="visible"/>
<use xlink:href="#_x2E_i-gbl-logo-white"  width="170.9" height="30.1" x="-85.4" y="-15.1" transform="matrix(1 0 0 -1 -325.55 296.83)" overflow="visible"/>
<use xlink:href="#_x2E_i-twitter-pink"  width="26.1" height="21" x="-13" y="-10.5" transform="matrix(1 0 0 -1 -193.05 292.28)" overflow="visible"/>
<use xlink:href="#_x2E_i-menu-grey"  width="19" height="18" x="-9.5" y="-9" transform="matrix(1 0 0 -1 -137.943 290.78)" overflow="visible"/>
<use xlink:href="#_x2E_i-github-pink"  width="22.6" height="22" x="-11.3" y="-11" transform="matrix(1 0 0 -1 -163.7215 292.78)" overflow="visible"/>
<use xlink:href="#_x2E_i-vimeo-pink"  width="24" height="21" x="-12" y="-10.5" transform="matrix(1 0 0 -1 -223.1 292.28)" overflow="visible"/>
</svg>
