<?xml version="1.0" encoding="utf-8"?>
<!-- Generator: Adobe Illustrator 18.1.1, SVG Export Plug-In . SVG Version: 6.00 Build 0)  -->
<!DOCTYPE svg PUBLIC "-//W3C//DTD SVG 1.1//EN" "http://www.w3.org/Graphics/SVG/1.1/DTD/svg11.dtd">
<svg version="1.1" id="Layer_1" xmlns="http://www.w3.org/2000/svg" xmlns:xlink="http://www.w3.org/1999/xlink" x="0px" y="0px"
	 width="1356.1px" height="129.7px" viewBox="0 0 1356.1 129.7" enable-background="new 0 0 1356.1 129.7" xml:space="preserve">
<symbol  id="_x2E_logo-aj" viewBox="-148.2 -50.1 296.3 100.2">
	<path fill="#6B7482" d="M-93.6,5c-3.9,7.7-8.8,14.9-18.7,27.2c-4.2,5.2-5.4,7.4-6.1,10.4c-0.6,2.9,0,5.3,1.8,6.6
		c0.8,0.6,0.9,0.9,0.3,0.9c-0.9,0-2.6-1.6-3.2-2.9c-0.7-1.6-0.9-2.6-0.9-5c0-2.6,0.3-3.8,1.3-6.2c0.3-0.8,0.7-1.6,0.8-1.8
		c0.1-0.3,0.1-0.5-0.4-1.2c-1.8-2.8-2.1-5.8-1-8.8c1.3-3.6,1.5-4,1.5-5.3c0.2-3.2-0.8-6.6-4.7-15.7c-2.1-4.8-2.9-8-3-11.6
		c-0.1-1.9,0.1-5,0.3-5.2c0,0,0.4,0.2,0.7,0.6l0.7,0.6l0.1,2c0.1,2.2,0.3,3.5,1.1,5.7c0.7,2.1,1.1,3,2.9,6.6
		c2.8,5.6,3.8,9.5,3.7,14.6c0,1.2,0,2.2,0.1,2.2c0.2,0,4.4-4.5,5.9-6.3c3.3-3.9,4.4-6.2,4.4-8.7c0-2.4-0.8-4.7-2.5-6.7
		c-1.3-1.6-1.5-2.1-1.5-3.3c0-0.8,0.1-1.5,0.6-3c0.4-1.1,0.7-1.9,0.8-1.9c0.1,0,0.4,0.4,0.8,0.9c0.8,1.1,1.9,2.1,4.6,4.1
		c1,0.8,2.3,1.8,2.9,2.3c0.6,0.5,1.1,0.9,1.1,0.9c0.1,0,0.1-0.5,0-1.1c-0.3-3.1-2.5-6.5-7.1-10.9c-5.3-5-7.5-8-8.5-11.7
		c-0.4-1.3-1.1-6.1-1.7-10c-0.4-2.7-0.7-4-1.3-5.3c-2.2-4.8-6.9-4.2-10.3,1.3c-0.5,0.7-0.9,1.4-0.9,1.5c-0.1,0.2-1.5-0.6-1.5-0.8
		c0-0.1,0.4-0.9,0.9-1.8c2-4,4.9-6.8,7.9-7.8l0,0c1-0.3,1.4-0.4,2.6-0.3c1.3,0,1.6,0.1,2.5,0.5c1.4,0.7,2.4,1.9,2.9,3.8
		c0.4,1.2,0.9,4.7,1.4,9.6c0.3,3.4,0.9,6.7,1.4,8c0.5,1.3,1.9,3,5.9,7.2c4,4.2,5.4,5.9,6.4,7.9c1,2,1.3,3,1.4,5
		c0.1,1.9-0.1,3.8-0.6,6.6c-0.4,2-1.3,5.8-1.5,6c-0.1,0.1-0.4-0.2-0.7-0.6c-0.9-1.2-3.8-3.8-4-3.6c0,0,0,0.3,0.1,0.7
		c0.9,3.4-0.1,7.5-2.8,11.6c-1.5,2.2-3.1,4.2-6,7.3c-4.8,5-5.7,6.4-5.9,8.7c0,0.8,0,1.4,0.2,1.9c0.3,0.8,0.9,2,1.1,2
		c0.1,0,0.7-0.7,1.3-1.6c0.7-0.9,1.6-2.2,2.2-2.8c11.8-14.8,17.3-23,20.4-30.7c0.9-2.2,1.7-4.8,1.9-6.4c0.3-2,0.1-5.9-0.4-7.9
		c-0.7-2.6-1.8-5-3.2-6.8c-0.8-1.1-2.5-2.7-3.4-3.3c-2.9-1.9-6.6-2.7-10.1-2.1c-0.8,0.1-1.5,0.3-1.6,0.3c-0.3,0-0.6-0.8-0.9-3
		c-0.4-2.2-0.4-2.1,1.1-2.5c4.3-1.3,9.1-1,12.7,0.8c5.3,2.7,8.4,8.1,9.1,15.8c0.3,3.6,0,7-1.1,11.2C-90.1-2.5-91.1,0.1-93.6,5z"/>
	<path fill="#6B7482" d="M-106-40.4c0-0.5-0.1-0.6-0.5-0.8c-0.4-0.2-0.5-0.2-0.8,0c-0.4,0.3-0.9,1.1-1.4,2.3c-0.4,1-0.7,1.3-0.9,1.1
		c-0.1-0.1-0.1-0.5,0.3-1.3c0.9-2.5,1.7-3.7,2.8-4.3l0,0c0.8-0.4,1-0.4,1.5,0.1c0.5,0.5,0.5,0.7,0.2,1.8
		C-105.3-39.9-105.9-39.3-106-40.4z"/>
	<path fill="#6B7482" d="M-124.8-24.1c0.1,1.5,0.3,2.9,0.4,3.1c0.1,0.3,1.1,1.3,3.1,3.1c3.1,2.8,3.7,3.6,3.7,4.8
		c0,0.7-0.6,5-0.7,5.2c-0.1,0.1-0.4-0.3-0.8-0.8c-0.6-0.9-2.6-2.8-5.2-5c-1.7-1.5-2-2.3-2.6-6.4c-1-7.1-2.3-10.9-4.4-13
		c-2-2-5.2-2.5-7.7-1.2c-2.6,1.3-4.5,5.2-4.7,9.6l-0.1,1.7l1.2-1.1c1.6-1.5,2.8-2.1,4.2-2.1c1.3,0,1.7,0.1,2.4,0.7
		c1,0.9,1.4,2.2,1.4,4.3c0,4.1-2.2,9-4.6,10.3c-1,0.5-2.3,0.5-3.2-0.1c-0.9-0.6-1.8-1.8-2.2-3.1c-0.2-0.5-0.4-1-0.5-1.1
		c-0.3-0.1-0.5,1.7-0.5,3.9c0,1.6,0.1,2.5,0.3,3.7c0.9,4.3,2.6,7.3,5.9,10.6c2.3,2.2,4.6,4,9.8,7.5c4,2.7,5.8,4.1,6.7,5.6
		c0.4,0.7,0.5,0.7,0.5,0.4c0.1-1-1.1-4.1-3.9-9.9c-2.3-4.8-3-6.4-4.2-9.6c-1.5-4-2.4-7.6-2.9-11.5c-0.3-2.5-0.5-7.6-0.3-10.8
		c0.2-2.9,0.8-7.4,1.1-7.7c0.1-0.1,0.3,0,0.7,0.4l0.5,0.5l-0.3,1.7c-1,6.1-0.6,12.7,1.1,19.4c1.2,4.7,2.7,8.5,6.3,15.9
		c3.1,6.5,3.7,8.7,3.5,13.9c-0.1,4.3-0.7,6.9-1.9,8.1c-0.6,0.7-1.3,1.1-2.2,1.1c-2.1,0-3.3-1.4-3.3-3c0-1.6,1.4-3,3-3
		c0.8,0,1.4,0.3,2,0.7l0.4,0.3l-0.1-1.1c-0.1-1.4-0.6-2.4-1.9-3.8c-1.4-1.5-2.7-2.5-7.2-5.1c-6-3.6-8.1-5.1-10.3-7.2
		c-2.8-2.7-4.7-6-5.6-9.4c-1.2-4.7-0.8-9.2,1.2-14.3c0.6-1.5,0.6-1.6,0.7-4.1c0.2-6.7,1.9-11.3,5.4-14.7c1.8-1.8,3.4-2.6,5.5-2.8
		c0.5-0.1,1.3-0.1,1.7-0.1C-128.1-39.5-125.9-35.3-124.8-24.1z M-142.9-18.9c0.9,1.8,2.3,2.9,3.6,2.9c0.3,0,0.6-0.1,0.8-0.2
		c0.5-0.3,1.3-1.5,1.3-2c0-0.2-0.2-0.7-0.4-1.2c-0.3-0.6-0.6-0.9-1.2-1.2c-1.1-0.5-2.3-0.5-3.4,0C-143.3-20.1-143.4-20-142.9-18.9z"
		/>
	<path fill="#6B7482" d="M-121.2-20.5c-0.3,0.5-0.7,0.9-0.8,0.9s-0.5-0.3-0.8-0.7l-0.7-0.7l0.6-1.2c1.4-2.8,3.3-5.5,5.2-7.3
		c0.6-0.6,1.1-1,1.2-1c0,0,0.2,0.9,0.4,1.8c0.2,0.9,0.4,1.9,0.5,2.1c0.1,0.3,0,0.5-0.9,1.2C-117.9-24.2-120.4-21.5-121.2-20.5z"/>
	<path fill="#6B7482" d="M-133.8,2.5c0,1-3.1-1.7-4.1-3.6c-0.4-0.7-0.6-1.4-0.7-2.1c-0.2-1.3,0-2,0.5-2.6c1-1,2.4-0.2,3,1.8
		c0.3,0.9,0.3,1.4,0,1.5c-0.2,0.1-0.7-0.5-0.7-0.9c0-0.8-1-1-1.5-0.3c-0.8,1-0.1,2.5,2,4.7C-134.4,1.7-133.8,2.4-133.8,2.5z"/>
	<path fill="#6B7482" d="M-109.8,4.9C-110,6-110,6-110.5,5.4c-0.2-0.3-1.7-1.9-3.2-3.6c-3.7-4-3.8-4.2-3.5-5.6
		c0.1-0.3,0.2-0.6,0.3-0.6c0.1,0,0.3,0.3,0.6,0.7c0.3,0.4,1.8,2.1,3.3,3.8s2.9,3.3,3,3.6C-109.7,4.2-109.7,4.5-109.8,4.9z"/>
	<path fill="#6B7482" d="M-128.9,16.6c1.7,0,3,1.4,3,3v0c0,1.7-1.4,3-3,3c-1.7,0-3-1.4-3-3v0C-131.9,18-130.6,16.6-128.9,16.6z"/>
	<polygon fill="#6B7482" points="-116.1,-15.9 -112.2,-17.8 -110,-13.3 -113.9,-11.4 	"/>
	<polygon fill="#6B7482" points="-101.1,-19.6 -103.3,-24.1 -99.4,-26 -97.2,-21.5 	"/>
	<polygon fill="#6B7482" points="-121.2,-29.8 -124.4,-33.7 -121,-36.5 -117.8,-32.6 	"/>
	<polygon fill="#6B7482" points="-125.2,-40.6 -121.8,-43.3 -118.6,-39.4 -122,-36.6 	"/>
	<path fill="#6B7482" d="M-70.9-2.2l-9.9-28.3h7.3l1.7,5.1h9.5l1.4-5.1h7.7l-9.7,28.3H-70.9z M-69.7-18.8l2.7,8.4l2.7-8.4H-69.7z"/>
	<path fill="#6B7482" d="M-3.7-2.2l-9.9-28.3h7.3l1.7,5.1h9.5l1.4-5.1H14L4.3-2.2H-3.7z M-2.5-18.8l2.7,8.4l2.7-8.4H-2.5z"/>
	<path fill="#6B7482" d="M138.4-2.2h-8l-9.9-28.3h7.3l1.7,5.1h9.5l1.4-5.1h7.7L138.4-2.2z M131.6-18.8l2.7,8.4l2.7-8.4H131.6z"/>
	<polygon fill="#6B7482" points="-32.2,-24.4 -41.2,-24.4 -41.2,-2.2 -48.2,-2.2 -48.2,-30.4 -32.2,-30.4 	"/>
	<polygon fill="#6B7482" points="52.5,-19.4 61.9,-19.4 61.9,-13.7 52.5,-13.7 52.5,-8.1 63.7,-8.1 63.7,-2.2 45.6,-2.2 45.6,-30.6 
		64.6,-30.6 64.6,-24.8 52.5,-24.8 	"/>
	<polygon fill="#6B7482" points="77.7,-19.4 87.2,-19.4 87.2,-13.7 77.8,-13.7 77.8,-8.1 88.9,-8.1 88.9,-2.2 70.8,-2.2 70.8,-30.6 
		89.8,-30.6 89.8,-24.8 77.7,-24.8 	"/>
	<polygon fill="#6B7482" points="38.8,-9.4 38.8,-2.2 19.4,-2.2 19.4,-8.1 29.4,-8.1 19,-23.4 19,-30.6 39,-30.6 39,-24.4 
		28.5,-24.4 	"/>
	<path fill="#6B7482" d="M-18.2-2.1h-7.1l0.1-28.2c0-2.2-1.7-4.2-3.5-4.2c-1.3,0-2.3,0.7-2.3,0.7l-1.6-5.9c0,0,7.6-3.9,11.9,0.7
		c3.1,3.4,2.6,7.8,2.6,7.8V-2.1z"/>
	<path fill="#6B7482" d="M112-16.9c1.1,0.8,2.4,1.8,2.4,1.8s2,1.2,2,5.1c0,3.9-2.5,7.8-6.9,7.8H96.1l0,0v-28.2h7.1v10.5
		c1.7,0,2.8,0.2,3.6-0.7c0.9-1,4.3-9.8,4.3-9.8l7.3,0l-4.4,11.2C113.9-19.2,113-16.9,112-16.9z M106.6-13.8h-3.5v5.6h3.4
		c1.3,0,2.6-1.3,2.6-2.8C109.2-12.5,107.9-13.8,106.6-13.8z"/>
</symbol>
<symbol  id="_x2E_logo-az" viewBox="-162.7 -40.6 325.4 81.3">
	<path fill="#6B7482" d="M-149.4-3.7l-13.3-35h5l3.9,10.7h13.3l3.8-10.7h4.9l-12.8,35H-149.4z M-152.3-24.1l5.4,14.6l5.1-14.6
		H-152.3z"/>
	<path fill="#6B7482" d="M-119.7-22.7c-2.8,0.6-6.2,1.6-6.2,4.1c0,1.8,1.8,3.9,5.3,3.9c3.6,0,5.7-2.4,6.1-3.4l4.1,1.7
		c-1.9,3.6-5.7,5.1-9.7,5.1c-6.2,0-10.2-3-10.2-7.9c0-5.5,4.7-6.6,9.3-7.6c3.9-0.8,7.7-1.8,7.7-4.8c0-2.9-2.3-4.4-6.3-4.4
		c-3.2,0-5.3,0.9-6.5,3l-4.7-0.8c1.8-3.8,5.7-5.6,11.1-5.6c7.3,0,11.1,4.1,11.1,8.4C-108.7-25.4-113.8-23.8-119.7-22.7z"/>
	<path fill="#6B7482" d="M-98.8-3.7l-4.6-1.9V-12h-4.2v-3.7h4.2v-17.2c-0.1-3.5-0.1-6,5.1-6c1.7,0,3.5,0.3,4.3,0.4v3.7
		c-0.9-0.3-2.1-0.6-2.9-0.6c-1.9,0-1.9,1.3-1.9,4.5v15.2h4.8v3.7h-4.8V-3.7z"/>
	<path fill="#6B7482" d="M-85.5-16.9v4.8H-90v-26.6h4.5v12.2c0,2.3-0.1,5,1.1,6.9c1.4,2.4,3.6,3.3,8,3.3v4.6
		C-78.2-11.7-83-11.8-85.5-16.9z"/>
	<polygon fill="#6B7482" points="-24.7,-8.1 -24.7,-3.7 -49.9,-3.7 -49.9,-8 -30,-8 -50,-34.2 -50,-38.7 -24.2,-38.7 -24.2,-34.5 
		-44.6,-34.5 	"/>
	<path fill="#6B7482" d="M16.6-11.4c-1.6,0-5.8-0.4-8.3-4.7v3.9H3.8v-26.5h4.5v15.1c0,2,0,4,2,6c1.4,1.4,3.1,2,5.1,2
		c2.4,0,4.9-1.1,5.7-3.7c0.3-0.9,0.3-1.7,0.3-4.4v-15.1h4.5v15.8c0,2.2,0,3.9-0.5,5.5C24-13.1,19.9-11.4,16.6-11.4z"/>
	<path fill="#6B7482" d="M66.8-14.4c3.7,0,5.4-2,6.2-3.8l4.2,1.7c-2.6,4.3-7.2,5.3-10.6,5.3C58.1-11.1,54-18,54-25.5
		c0-6.5,3.6-13.8,13-13.8c5.5,0,8.5,2.6,10.2,5.3l-4,1.7c-0.9-1.8-2.7-3.5-6.1-3.5c-3,0-8.1,1.9-8.1,10.7
		C59-22.8,59.4-14.4,66.8-14.4z"/>
	<path fill="#6B7482" d="M0.7-20.5c-1.6,6.7-6.3,9.4-11.1,9.4c-5.6,0-12.2-3.8-12.2-13.8c0-9,4.5-14.3,12.4-14.3
		c5.8,0,8.7,3,10.3,5.6l-4.3,0.8c-1.2-1.8-3-3-5.5-3c-6.3-0.1-8.2,5.5-8,10H1.2C1.2-24.8,1.2-22.7,0.7-20.5z M-17.8-22.7
		c0.5,5.3,3.2,8.1,7,8.1c2.7,0,6.7-1.2,7.1-8.1H-17.8z"/>
	<path fill="#6B7482" d="M51.5-20.5c-1.6,6.7-6.3,9.4-11.1,9.4c-5.6,0-12.2-3.8-12.2-13.8c0-9,4.5-14.3,12.4-14.3
		c5.8,0,8.7,3,10.3,5.6l-4.3,0.8c-1.1-1.8-3-3-5.5-3c-6.3-0.1-8.2,5.5-8,10H52C52-24.8,52-22.7,51.5-20.5z M33-22.7
		c0.5,5.3,3.2,8.1,7,8.1c2.7,0,6.7-1.2,7.1-8.1H33z"/>
	<path fill="#6B7482" d="M100.7-20c0,0,0.1,4.4-2.9,6.7c-2.1,1.6-5.3,2.3-7.8,2.3c-4.5,0-7.6-1.8-9.2-4.7c-0.1-0.1-0.2-0.3-0.2-0.4
		l4.1-1.7c0.4,1.6,1.7,3.4,5.4,3.4c5.9,0,5.9-4.6,5.9-7.4v-0.7l-4.2-0.3c-7.9-0.6-10.8-2.4-12.3-4.7c-0.8-1.2-1.2-2.6-1.2-4
		c0-4.5,3.8-7.6,9-7.6c5.1,0,7.6,2.9,8.9,4.3c0.1-2.1,0.5-3.9,0.5-3.9l4.6,0c-0.6,1.1-0.7,5.1-0.7,5.1L100.7-20z M95.5-31.4
		c-1.3-2.8-3.9-4-7-4c-3.3,0-5,1.8-5,3.9c0,1.9,0.8,3.7,5.8,4.8c2.9,0.6,5.2,1,7,1.2C96.2-29.3,96.1-29.9,95.5-31.4z"/>
	<path fill="#6B7482" d="M-54-20c0,0,0.1,4.4-2.9,6.7c-2.1,1.6-5.3,2.3-7.8,2.3c-4.5,0-7.6-1.8-9.2-4.7c-0.1-0.1-0.2-0.3-0.2-0.4
		l4.1-1.7c0.4,1.6,1.7,3.4,5.4,3.4c5.9,0,5.9-4.6,5.9-7.4v-0.7l-4.2-0.3c-7.9-0.6-10.7-2.4-12.3-4.7c-0.8-1.2-1.2-2.6-1.2-4
		c0-4.5,3.8-7.6,9-7.6c5.1,0,7.6,2.9,8.9,4.3c0.1-2.1,0.5-3.9,0.5-3.9l4.6,0c-0.6,1.1-0.7,5.1-0.7,5.1L-54-20z M-59.2-31.4
		c-1.3-2.8-3.9-4-7-4c-3.3,0-5,1.8-5,3.9c0,1.9,0.8,3.7,5.8,4.8c2.9,0.6,5.2,1,7,1.2C-58.5-29.3-58.6-29.9-59.2-31.4z"/>
	<path fill="#6B7482" d="M162.7-1.9c0,0.2,0,0.3-0.1,0.5c-0.1,0.3-0.2,0.6-0.3,1c-0.1,0.3-0.3,0.6-0.5,1c-0.2,0.3-0.4,0.7-0.6,1
		c-0.1,0.2-0.3,0.4-0.4,0.5c-0.2,0.2-0.4,0.4-0.6,0.5c-0.5,0.4-0.9,0.7-1.4,1c-1.1,0.7-2.2,1.4-3.3,1.9c-1.4,0.6-2.8,1.4-4.2,1.9
		l-9.8,3.4c0,1.9,0.1,3.7,0,5.6c-0.1,2.8-0.2,5.5-0.4,8.3c-0.1,1.9-0.4,3.8-0.7,5.7c-0.2,1.5-0.6,2.9-0.9,4.4
		c-0.1,0.3-0.2,0.7-0.3,1c-0.1,0.3-0.2,0.6-0.3,0.9c-0.1,0.3-0.2,0.5-0.4,0.8c-0.1,0.2-0.2,0.4-0.4,0.7c-0.1,0.2-0.3,0.4-0.4,0.6
		c-0.1,0.2-0.3,0.3-0.4,0.5c-0.1,0.1-0.3,0.3-0.4,0.4c-0.1,0.1-0.3,0.2-0.4,0.3c-0.1,0.1-0.3,0.2-0.4,0.3c-0.1,0.1-0.3,0.1-0.4,0.2
		c-0.2,0.1-0.5,0.2-0.7,0.3c-0.2,0.1-0.4,0.1-0.6,0.1c-0.2,0-0.3,0-0.5,0c-0.3,0-0.5,0-0.8,0c-0.3,0-0.6-0.1-0.9-0.1
		c-0.3-0.1-0.6-0.1-0.9-0.2c-0.3-0.1-0.6-0.2-0.9-0.4c-0.3-0.2-0.6-0.3-1-0.5c-0.3-0.2-0.7-0.4-1-0.7c-0.5-0.4-1.1-0.8-1.6-1.3
		c-2-1.9-4.1-3.9-6-5.9c-1-1.1-2.1-2.2-3-3.3c-3.8-4.6-7.5-9.1-11.1-13.8c-1.6-2.1-3.1-4.3-4.6-6.4c-0.4-0.5-0.7-1.1-1-1.7
		c-0.6-1-1.1-2-1.6-3c-0.1-0.3-0.2-0.5-0.3-0.8c-0.1-0.3-0.2-0.5-0.3-0.8c-0.1-0.3-0.1-0.5-0.2-0.8c0-0.2,0-0.5,0-0.7
		c0-0.1,0-0.2,0.1-0.4c0-0.1,0.1-0.2,0.2-0.4c0.1-0.1,0.2-0.2,0.2-0.4c0.1-0.1,0.2-0.2,0.3-0.4c0.2-0.2,0.5-0.5,0.8-0.7
		c0.3-0.2,0.5-0.4,0.8-0.6c0.5-0.3,1-0.6,1.6-1c0.2-0.1,0.5-0.2,0.7-0.4c0.1,0-0.2,0.1-0.2,0.1c0,0,0,0,0,0c0,0,0,0,0,0
		c0.1-0.1,0.3-0.1,0.4-0.2c3.2-1.7,6.5-3.3,9.7-5.1c3.2-1.7,6.4-3.4,9.6-5.2l7.2-4c-2.5-1.9-5-3.7-7.5-5.6c-0.9-0.7-1.8-1.6-2.6-2.4
		c-0.7-0.7-1.3-1.4-1.9-2.2c-0.5-0.6-0.9-1.2-1.3-1.9c-0.3-0.5-0.6-1-0.9-1.6c-0.2-0.4-0.4-0.8-0.5-1.3c-0.1-0.3-0.2-0.6-0.2-0.9
		c0-0.2,0-0.4-0.1-0.6c0-0.1,0-0.1,0-0.2c0-0.2,0-0.3,0-0.5c0-0.2,0-0.3,0.1-0.5c0-0.2,0.1-0.3,0.1-0.5c0-0.1,0.1-0.3,0.1-0.4
		c0.1-0.1,0.1-0.3,0.2-0.4c0.1-0.1,0.1-0.3,0.2-0.4c0.2-0.2,0.3-0.5,0.5-0.6c0.2-0.2,0.4-0.4,0.6-0.5c0.2-0.2,0.5-0.3,0.7-0.5
		c0.2-0.1,0.5-0.3,0.8-0.4c0.3-0.1,0.5-0.2,0.8-0.3c1-0.2,2-0.4,3-0.6c0.5-0.1,1-0.1,1.5-0.1c1.7,0.1,3.5,0.3,5.2,0.6
		c2,0.3,4,0.7,6,1.2c2.3,0.5,4.7,1.1,7,1.7c1.6,0.4,3.3,0.8,4.9,1.5c1.2,0.5,2.5,1,3.7,1.5c0.3,0.1,0.5,0.3,0.8,0.4
		c0.2,0.1,0.5,0.3,0.7,0.4c0.2,0.1,0.4,0.3,0.6,0.4c0.1,0.1,0.3,0.3,0.4,0.5c0.1,0.1,0.2,0.3,0.3,0.4c0.1,0.1,0.1,0.3,0.1,0.4
		c0,0.1,0,0.3,0,0.4c0,0.1,0,0.3,0,0.4c0,0.1-0.1,0.3-0.1,0.4c0,0.1-0.1,0.3-0.2,0.4c-0.1,0.1-0.1,0.2-0.2,0.3
		c-0.1,0.1-0.2,0.2-0.3,0.3c-0.2,0.2-0.4,0.4-0.6,0.5c-0.2,0.1-0.3,0.3-0.5,0.4c-0.2,0.1-0.4,0.2-0.6,0.4c-1.3,0.8-2.5,1.6-3.8,2.3
		l-5.4,3.2c3.3,2.2,6.6,4.4,9.8,6.6c1.4,1,2.7,2,4.1,3c1.1,0.9,2.2,1.9,3.2,2.9c0.5,0.5,0.9,1,1.4,1.5c0.2,0.2,0.4,0.5,0.6,0.7
		c0.2,0.2,0.3,0.5,0.5,0.7c0.4,0.8,0.8,1.7,1.2,2.5c0.1,0.4,0.2,0.7,0.3,1.1c0,0.2,0.1,0.3,0.1,0.5c0,0.2,0,0.3,0,0.5
		C162.7-2.2,162.7-2,162.7-1.9z M122.5,20.1c1.8,1.9,3.6,3.8,5.5,5.6c0.3,0.3,0.7,0.6,1.1,1c0.1,0.1,0.3,0.2,0.4,0.3
		c0.1,0.1,0.2,0.2,0.3,0.2c0.1,0,0.2,0.1,0.2,0.1c0.1,0,0.2,0.1,0.3,0.1c0.1,0,0.2,0,0.3,0c0.1,0,0.1,0,0.2,0c0.1,0,0.1,0,0.2-0.1
		c0.1,0,0.1-0.1,0.1-0.1c0.1,0,0.1-0.1,0.1-0.1c0.1-0.1,0.1-0.1,0.1-0.2c0-0.1,0.1-0.2,0.1-0.2c0.1-0.2,0.2-0.5,0.2-0.7
		c0.1-0.3,0.2-0.7,0.2-1c0.1-0.9,0.3-1.7,0.4-2.6c0.1-1.1,0.2-2.2,0.3-3.3l0.6-5.9l-6.6,1.5l-6.2,1l-1.5,0.1l-0.5,0
		C119.8,17.2,121.1,18.7,122.5,20.1z M118.4,11.9L118.4,11.9L118.4,11.9l0.1,0.1l0.1,0l0.2-0.1l0.6-0.2l0.8-0.4
		c2.1-0.9,4.2-1.8,6.3-2.7c1.4-0.6,2.8-1.2,4.2-1.8l2.8-1.2l0.2-0.1c0.1-2.2,0.3-4.3,0.4-6.5c0.1-1.7,0.1-3.4,0.2-5.1
		c0-0.2,0-0.4,0-0.6c0-0.1,0-0.2,0-0.4c0-0.1,0-0.2-0.1-0.4c0-0.1-0.1-0.2-0.1-0.3c-0.1-0.1-0.1-0.2-0.2-0.3c0,0-0.1-0.1-0.1-0.1
		c0,0-0.1-0.1-0.2-0.1c-0.1,0-0.1-0.1-0.2-0.1c-0.1,0-0.1,0-0.2-0.1c-0.1,0-0.2,0-0.3,0c-0.1,0-0.2,0-0.3,0c-0.1,0-0.2,0-0.3,0.1
		c-0.1,0-0.2,0.1-0.3,0.1c-0.2,0.1-0.4,0.2-0.6,0.3c-0.2,0.1-0.4,0.3-0.7,0.4c-0.2,0.2-0.5,0.4-0.7,0.6c-0.2,0.2-0.5,0.4-0.7,0.7
		c-0.5,0.5-0.9,1-1.4,1.6c-0.8,1-1.6,1.9-2.3,3c-1,1.4-2,2.9-2.9,4.3c-0.6,0.9-1.1,1.7-1.6,2.7L119,9.4l-0.5,1.3l-0.1,0.4l-0.1,0.4
		l0,0.3L118.4,11.9z M141.9-25.4c0.6-0.4,1.1-0.7,1.7-1.1c0.7-0.5,1.5-1,2.2-1.5c0.5-0.4,1-0.8,1.5-1.2c0.2-0.2,0.4-0.4,0.6-0.6
		c0.2-0.2,0.3-0.4,0.4-0.5c0,0,0,0,0,0c0,0,0-0.1,0-0.1c0,0,0,0,0-0.1c0,0,0,0-0.1,0c0,0-0.1,0-0.1,0c-0.1,0-0.1,0-0.2,0
		c-2.8-0.2-5.6-0.4-8.4-0.6L128.6-32l-0.3,0l0.2,0.2l0.7,0.6c1.4,1.1,2.8,2.2,4.2,3.2l6.2,4.2C140.3-24.4,141.1-24.9,141.9-25.4z
		 M150.2-4c0-0.1-0.1-0.2-0.1-0.3c-0.1-0.1-0.1-0.2-0.2-0.3c-0.2-0.2-0.4-0.4-0.6-0.6c-0.5-0.4-0.9-0.8-1.4-1.2
		c-1.7-1.2-3.4-2.5-5.2-3.7c-1.2-0.8-2.5-1.6-3.7-2.4l-7.2-4.6c-1,0.6-2,1.2-3,1.7l-13,7.4c-2.9,1.7-5.9,3.5-8.8,5.3
		c-0.5,0.3-1.1,0.7-1.6,1.1c-0.2,0.1-0.3,0.3-0.5,0.4c-0.1,0-0.1,0.1-0.2,0.1c-0.1,0.1-0.2,0.2-0.3,0.3c-0.1,0.1-0.1,0.1-0.2,0.2
		c-0.1,0.1-0.1,0.2-0.1,0.3c0,0.1-0.1,0.2-0.1,0.3c0,0.1,0,0.2,0,0.3c0,0.1,0,0.2,0.1,0.3c0,0.1,0.1,0.2,0.2,0.3
		c0.1,0.2,0.3,0.4,0.4,0.6c0.2,0.2,0.4,0.5,0.6,0.7c1.7,1.7,3.4,3.4,5.1,5.1l4.5,4.6l0.2-0.7l0.6-1.3l0-0.1c1.2-2.1,2.3-4.2,3.6-6.2
		c1.5-2.3,3-4.6,4.6-6.9c0.7-1.1,1.5-2.1,2.3-3.1c0.7-0.9,1.4-1.7,2.2-2.5c0.7-0.7,1.5-1.3,2.2-2c0.4-0.3,0.8-0.6,1.2-0.8
		c0.2-0.1,0.4-0.2,0.6-0.3c0.2-0.1,0.4-0.2,0.6-0.2c0.2-0.1,0.4-0.1,0.6-0.2c0.2,0,0.4-0.1,0.6-0.1c0.2,0,0.4,0,0.5,0
		c0.2,0,0.3,0,0.5,0c0.2,0,0.3,0.1,0.4,0.1c0.1,0,0.3,0.1,0.4,0.1c0.1,0,0.2,0.1,0.4,0.2c0.1,0.1,0.2,0.1,0.3,0.2
		c0.2,0.1,0.4,0.3,0.5,0.5c0.1,0.1,0.3,0.3,0.4,0.5c0.2,0.2,0.3,0.4,0.4,0.6c0.2,0.3,0.3,0.5,0.4,0.8c0.1,0.3,0.3,0.6,0.4,1
		c0.2,0.7,0.4,1.4,0.6,2.1c0.2,1,0.5,1.9,0.6,2.9l0.6,5.7c1.3-0.6,2.7-1.2,4-1.9c1.3-0.7,2.5-1.4,3.8-2.2c0.1-0.1,0.3-0.2,0.4-0.3
		c0.2-0.2,0.4-0.3,0.5-0.5c0.1-0.1,0.2-0.2,0.2-0.3c0.1-0.1,0.1-0.2,0.2-0.3c0-0.1,0.1-0.2,0.1-0.3c0-0.1,0-0.1,0-0.2
		C150.3-3.9,150.3-3.9,150.2-4z"/>
</symbol>
<symbol  id="_x2E_logo-bede" viewBox="-89.9 -42.7 179.8 85.4">
	<path fill="#6B7482" d="M73.8,29c-9.9,3.7-20.9,0.8-27.1-7.6c-3-4.1-5.1-8.9-7.7-13.3c-2-3.5-3.8-7.3-6.2-10.5
		C29-7.7,22.9-9.3,16.9-7C11.5-4.9,7.8,0.7,8.1,6.5c0.3,6.1,4.5,11.3,10.5,13c5.7,1.5,11.7-0.9,15.2-6.1c0.4-0.6,0.9-1.2,1.5-2.1
		c6.5,11.6,10.6,16.4,10.6,16.4v14.9h-10V26.9c-16.4,6.5-26.6,4.7-35.7-9.3c-0.8,1.1-1.5,2-2.2,2.9c-10.2,13.6-30.6,13.2-40-1
		c-2.4-3.6-4-7.6-6.1-11.4c-2-3.7-3.8-7.6-6.3-10.9C-59.6-9.3-69-9.7-74.9-3.9c-5.9,5.8-5.5,15.1,0.8,20.5
		c6.2,5.3,15.6,4.1,20.4-2.7c0.6-0.8,1.1-1.6,1.9-2.7c1.7,3,6,9.8,6,9.8s-0.6,0.9-2,2.3c-7.3,7.2-18.6,9.2-27.9,4.8
		c-1-0.5-2-0.9-3.6-1.7v16.2h-10.7V2.9c0.5-10,9-18.2,18.6-20.6c10.5-2.6,20.2,0.7,26.2,9.4c2.4,3.5,4.2,7.5,6.3,11.3
		c2.1,3.9,3.9,8.1,6.6,11.5c5.7,7.4,16.1,7.2,21.7-0.2c0.8-1,1.1-2.3,2-4c-6.8,0-12.9-0.1-18.9,0.1c-2.5,0.1-4.1-0.6-5.2-3
		c-2.2-4.8-4.6-9.5-7.1-14.1c-1.1-2.1-0.7-3.3,0.9-4.8c4.9-4.6,10.7-7.1,17.5-7c7.1,0.1,13.1,2.7,18,8.3c-2.8,2.4-5.3,4.6-7.7,6.8
		c-9.7-7.2-20.3-4.7-22.8,4.8c0.4,0.1,0,0.1,0,0.1H-3c3-6.9,8.6-15.2,15.8-18.1C25.5-22,38.4-16.8,45.3-3.5c2.4,4.7,4.3,9.6,7,14.1
		c1.7,2.9,4.1,5.9,6.9,7.6c7,4.4,17.6-0.2,18.6-7.9c-6.4,0-12.9,0.1-19.2-0.1c-1.3,0-3.2-0.9-3.8-2C52,3.1,49.4-2.2,46.9-7.5
		c-0.4-0.8-0.2-2.4,0.4-3.1C56-21.4,75.5-21,83.9-9.6c-2.6,2-5.2,4.1-7.8,6.1C65.8-10.4,54.6-8,52.8,1.6c1.3,0,2.6,0,3.8,0
		c9.8,0,33.3,0,33.3,0l0,3.5C90.3,15.5,83.8,25.4,73.8,29z"/>
	<path fill="#6B7482" d="M-81.5-35.5h3.4v-4.8c-0.5-0.3-1.2-0.6-1.8-0.7c-0.7-0.2-1.4-0.3-2.1-0.3c-0.9,0-1.8,0.2-2.5,0.5
		c-0.7,0.3-1.4,0.8-1.9,1.4c-0.5,0.6-0.9,1.2-1.2,2S-88-36-88-35.1c0,0.8,0.1,1.6,0.4,2.4s0.7,1.4,1.2,2c0.5,0.6,1.1,1,1.9,1.4
		c0.7,0.3,1.6,0.5,2.5,0.5c0.9,0,1.7-0.1,2.4-0.4c0.7-0.3,1.3-0.7,1.8-1.2l1.1,1.1c-0.7,0.7-1.4,1.1-2.2,1.5c-0.8,0.3-1.8,0.5-3,0.5
		c-1.1,0-2.1-0.2-3-0.6c-0.9-0.4-1.7-0.9-2.4-1.6c-0.7-0.7-1.2-1.5-1.6-2.4c-0.4-0.9-0.6-1.9-0.6-3c0-1.1,0.2-2.1,0.6-3
		c0.4-0.9,0.9-1.7,1.6-2.4c0.7-0.7,1.5-1.2,2.4-1.6c0.9-0.4,1.9-0.6,3-0.6c0.9,0,1.8,0.1,2.8,0.4c1,0.3,1.9,0.6,2.7,1.1v7.1h-4.9
		V-35.5z"/>
	<path fill="#6B7482" d="M-48.6-27.9l-6.3-14.4h1.7l1.6,3.8h7.4l1.6-3.8h1.7l-6.3,14.4H-48.6z M-51.1-37.2l3.1,7.6l3.1-7.6H-51.1z"
		/>
	<polygon fill="#6B7482" points="-12.1,-39.6 -17,-27.9 -19.2,-27.9 -19.2,-42.3 -17.7,-42.3 -17.7,-29.9 -17.7,-29.9 -12.5,-42.3 
		-11.7,-42.3 -6.5,-29.9 -6.5,-29.9 -6.5,-42.3 -5,-42.3 -5,-27.9 -7.2,-27.9 	"/>
	<polygon fill="#6B7482" points="18.7,-42.3 20.2,-42.3 20.2,-27.9 18.7,-27.9 	"/>
	<polygon fill="#6B7482" points="54.3,-40.1 54.3,-40.1 45.7,-27.9 43.8,-27.9 43.8,-42.3 45.3,-42.3 45.3,-30 45.4,-30 53.9,-42.3 
		55.8,-42.3 55.8,-27.9 54.3,-27.9 	"/>
	<path fill="#6B7482" d="M85-35.5h3.4v-4.8c-0.5-0.3-1.2-0.6-1.8-0.7c-0.7-0.2-1.4-0.3-2.1-0.3c-0.9,0-1.8,0.2-2.5,0.5
		c-0.7,0.3-1.4,0.8-1.9,1.4c-0.5,0.6-0.9,1.2-1.2,2s-0.4,1.5-0.4,2.4c0,0.8,0.1,1.6,0.4,2.4s0.7,1.4,1.2,2c0.5,0.6,1.1,1,1.9,1.4
		c0.7,0.3,1.6,0.5,2.5,0.5c0.9,0,1.7-0.1,2.4-0.4c0.7-0.3,1.3-0.7,1.8-1.2l1.1,1.1c-0.7,0.7-1.4,1.1-2.2,1.5c-0.8,0.3-1.8,0.5-3,0.5
		c-1.1,0-2.1-0.2-3-0.6c-0.9-0.4-1.7-0.9-2.4-1.6c-0.7-0.7-1.2-1.5-1.6-2.4c-0.4-0.9-0.6-1.9-0.6-3c0-1.1,0.2-2.1,0.6-3
		c0.4-0.9,0.9-1.7,1.6-2.4c0.7-0.7,1.5-1.2,2.4-1.6c0.9-0.4,1.9-0.6,3-0.6c0.9,0,1.8,0.1,2.8,0.4c1,0.3,1.9,0.6,2.7,1.1v7.1H85
		V-35.5z"/>
</symbol>
<symbol  id="_x2E_logo-lloyds" viewBox="-110.5 -49.6 220.9 99.2">
	<g>
		<path fill="#6B7482" d="M106.7-3.6c-3.5,2.6-6.6,6.5-9.9,10.2c-1.4,1.5-2.5,2.2-4.3,2.2c-1,0-2.5-0.3-3.6-0.3
			c-1.8,0-3.3,0.1-4.9-0.4c-1.2,0.9-1.1,1.9-0.4,2.3c1.5,0.8,0.1,1.4,0.1,2.5c0,1,1,1.3,1.7,1c0.7,1.8-0.7,3.7-1,5.1
			c1,0.2,2.1,0.7,2.7,2c-1,0.6-3.4,1.9-3.4,4.1c1.8,0.2,3.3,1.8,2.8,3.5c-0.4-0.2-0.8-0.3-1.3,0c-0.6,0.4-0.5,0.7-1.3,1.3
			c-0.9,0.6-2.7,0.7-3.1,2c1,1.5,1,3.4,0,4.1c-0.2-0.2-0.6-0.9-1.3-0.9c-1.4,0-1.7,0.9-2.9,2c-0.4,0.3-1,0.9-3.1,0.9
			c-1.3,0-2.3,0.8-3.3,0.7c0.4-0.6,0.2-1.7-0.7-1.5c-0.3,0.1-0.8,1-1.7,1.5c-0.7,0.4-1.2,0.4-1.8,0.9c-0.5,0.4-0.4,1.1-1,1.1
			c-0.4,0-0.4-0.7-0.4-1.1c0-0.8,0.4-1,0.3-2.1c-0.8,0.5-1.2,1.4-2,1.4c-0.1,0-0.2-0.1-0.3-0.2c0,0-0.2-0.2,0.1-0.9
			c0.2-0.7,1.3-1.2,1.3-2.1c0-1.7-2.2-2.8-2.2-4.4c0-0.3,0.2-0.5,0.2-0.8c0.1-0.8-0.8-1.5-1.3-2.6c-0.8-1.7-0.7-2.3-1.6-3.9
			c-0.4-0.8-1-1-1-1.9c0-1.7,0.7-3.7,2.4-3.7c0.8,0,1.7-0.7,2.4-0.3c2.1,1.2,0.7,1.6,1.6,2.6c1.5,1.4,2.8,2.8,4.2,2.8
			c0.5,0,0.7-0.6,0.7-1.5c0-3.2-2.5-7.7-5.2-10.1c-1.2-1-1.7-1.2-3-2.1c-3.4-2.3-6.3-2.8-8-2.8c-4.3,0-6.1,1-10.1,1
			c-2.7,0-5.5-0.9-7.8-2.5c-6.3,0.7-6.5,8.6-13.3,8.6c-4.7,0-8.4-4-8.4-9.2c0-4.8,2.3-7.8,6.5-10.7c0.7-0.6,1.4-0.9,1.4-2.1
			c0-2.5-4.4-2.5-4.4-5.8c0-1.6,1.2-2.8,2.8-2.8c0.7,0,1.3,0.2,1.5,0.8c-0.6,0.2-0.9,0.6-0.9,1c0,2.1,7.2,0.9,7.2,6.9
			c0,5.2-6.4,6-6.4,9.9c0,0.6,0.2,1.1,0.6,1.1c0.4,0,0.4-1,1.2-1.2c0.3,1.2,1.6,2.8,2.9,2.8c0.3,0,0.6-0.1,0.3-0.4
			c-0.6-0.6-0.7-1.2-0.7-1.8c0-0.4,0.2-1,0.8-1.2c0.2,0.5,1,1.4,2.1,1.4c1.2,0,1.2-0.4,2.9-0.3c0.4,0,0.4-0.2,0.4-0.3
			c-1.2-1.5-2-3.3-2.3-5.1c-0.6-4,0.3-6,0.3-6.9c0.1-0.7,0.2-1.6-0.4-2.8c-0.6-1.2-0.3-0.5-1.3-2.1c-1.7-2.8-5-2.9-4.7-6.1
			c0.9-5.5,0-10.1-0.1-12.9c-0.1-1.3-0.4-2.1-0.4-2.7c0-2.1,2.3-2,2.7-4c0.2-1-0.1-1.6,0.4-2.5c0.1-0.2,0.5-0.6,0.9-0.6h4.4
			c0.6,0,0.7,0.5,0.7,0.9c-0.1,1.5-1.4,2.6-2.5,3.3c-1.8,1.2-2.1,1.9-2.7,4.1c-0.4,3.3,0.2,6.7,0.6,10c0.1,1.5,0.5,2.5,1.5,3.4
			c0.4,0.5,1.4,1.2,1.8,1.3c2.8,0.4,4.7,1.3,6.3,2.5c0.1-2.5-2.4-2.9-2.4-5.3c0-2,1.5-2.8,2.7-4.3c2.1-2.9,3.3-3.9,5.8-7.9
			c0.9-1.5,0-2.2,1.2-3.3c0.7-0.6,1.1-0.4,1.7-1c0.7-0.9,0.4-1.9,0.9-2.9c0.1-0.2,0.4-0.6,1-0.6h4.1c0.6,0,0.9,0.4,0.9,1
			c0,1.3-1.2,2.8-3.3,3.9c-2,1-3.9,4.2-5.1,6.3c-1.3,2.3-3.7,4.4-4.5,7.1c-0.6,2.2,0,3.4,2,4.3c3.7,1.7,6.2,6.2,7.4,9.5
			c1.5,0.1,5.1-0.5,7.9-0.9c3.9-0.5,8.7-0.1,11.5,0.7c2,0.6,3.2,1.4,4.7,1.7h-0.1c1.8,0.4,2.1-0.7,3.9-0.1c4.7,1.4,8.4,4.5,11.2,5.6
			c0.5,0.2,1,0.3,1.6,0.3c1,0,1.2-0.5,2.2-1.6c2-2.1,3.1-5.7,3.9-9.3c0.2-0.7,1.3-0.6,1.3-1.3c0-1.2-0.9-1.7-0.9-2.8
			c0-1.5,3.4-3,4.8-3c1,0,1,1,1,1.7c0,2.3-1,3.6-2.1,5.5c-2.4,4.1-4.4,8.9-5.8,12.3C93.6-1,92.8,0.6,91,0.6c-1.7,0-4-0.2-5.7-0.2
			l-1.8-0.1l0.3,0.4c0.9,0.1,1.7,0.5,3.1,1.1c2,0.9,3.3,2.2,4.7,2.2c0.6,0,0.7,0,1.3,0.1c0.8,0.1,2.6-0.8,4.2-2.5
			c2-2,3.6-3.8,4.1-4.9c0.4-0.9,0.5-1.2,1.2-1.6c0.6-0.3,1.4,0,1.8-0.6c0.5-0.7-0.3-1.7,0.2-2.5c0.7-1,2.2-1.4,3.5-1.4
			c1.8,0,2.6,0.6,2.6,1.2C110.5-6,108.5-5,106.7-3.6z"/>
		<polygon fill="#6B7482" points="-108.4,-49.6 85.8,-49.6 85.8,-46.2 -108.4,-46.2 		"/>
		<polygon fill="#6B7482" points="-32.7,21.9 -36.1,21.9 -36.1,4.1 -32.7,4.1 		"/>
		<path fill="#6B7482" d="M-29.5,40.4c0,5-4,8.9-9.2,8.9h-5.7V31.5h5.7C-33.5,31.5-29.5,35.4-29.5,40.4z M-41,46.1h2.4
			c3.3,0,5.6-2.4,5.6-5.6c0-3.3-2.4-5.7-5.6-5.7H-41V46.1z"/>
		<path fill="#6B7482" d="M-100.9-23.6c1.6,0,3.2,0.3,4.7,0.7v9.2h-3.3v-6.6c-0.3-0.1-1-0.1-1.4-0.1c-3.6,0-6.1,2.5-6.1,5.9
			c0,3.5,2.6,5.9,6.2,5.9c1.6,0,2.9-0.3,4.1-0.7V-6c-1.1,0.4-2.6,0.7-4.2,0.7c-5.4,0-9.7-3.7-9.7-9.1v0
			C-110.5-19.9-106.1-23.6-100.9-23.6z"/>
		<path fill="#6B7482" d="M-32-17.2h2.4c3.5,0,6.3,2.3,6.3,5.9c0,3.5-2.6,5.8-6.1,5.8h-5.9v-17.8h3.3V-17.2z M-32-8.8h2.4
			c1.8,0,2.8-1,2.8-2.6c0-1.6-1.1-2.5-3-2.5H-32V-8.8z"/>
		<path fill="#6B7482" d="M1.5,3.8c1.6,0,3.2,0.3,4.7,0.7v9.2H3V7.2C2.7,7.1,2,7,1.6,7C-2.1,7-4.5,9.6-4.5,13c0,3.5,2.6,5.9,6.2,5.9
			c1.6,0,2.9-0.3,4.1-0.7v3.3c-1.1,0.4-2.6,0.7-4.2,0.7C-3.7,22.1-8,18.4-8,13C-8,7.5-3.7,3.8,1.5,3.8z"/>
		<polygon fill="#6B7482" points="-24,16.4 -14.2,4.1 -11.8,4.1 -11.8,21.9 -15.1,21.9 -15.1,10.2 -24.5,21.9 -27.4,21.9 -27.4,4.1 
			-24,4.1 		"/>
		<path fill="#6B7482" d="M-54-5.5v-11.3c0-4.1,3-6.8,7.1-6.8c4,0,7.1,2.8,7.1,6.8v11.3h-3.5v-11.2c0-2.2-1.4-3.6-3.6-3.6
			c-2.1,0-3.7,1.4-3.7,3.6v11.2H-54z"/>
		<path fill="#6B7482" d="M-21.8,39.3c2-0.7,3.6-1.2,3.6-2.8c0-1.4-1.4-2.1-2.9-2.1c-1.8,0-3.6,0.7-5.2,1.7v-3.5
			c1.2-0.7,3.2-1.4,5.3-1.4c3,0,6.2,1.9,6.2,5.4c0,3.4-2.7,4.7-5,5.4c-3,0.9-3.5,1.6-3.5,2.4c0,1.2,1.1,1.9,2.9,1.9
			c1.6,0,3.1-0.5,4.4-1.1v3.3c-1.5,0.7-3,1-4.5,1c-3.6,0-6.1-2-6.1-5.1C-26.6,42-25,40.3-21.8,39.3z"/>
		<path fill="#6B7482" d="M-79.4-11.1c0,3.5-2.5,5.5-6,5.5h-6.1v-17.8h3.4v6.8h2.2l3.8-6.8h3.9l-4.3,7.4
			C-80.7-15.1-79.4-13.3-79.4-11.1z M-85.5-13.4h-2.6v4.7h2.5c1.6,0,2.8-0.7,2.8-2.3C-82.9-12.6-83.9-13.5-85.5-13.4z"/>
		<path fill="#6B7482" d="M-97.4,17c0,3-2.2,4.9-5.6,4.9h-6.8V4.1h6.6c4,0,6.4,2,6.4,5.3c0,1.8-0.9,3.2-2.6,4.2
			C-98.3,14.2-97.4,15.4-97.4,17z M-106.3,18.8h3.1c1.1,0,2.5-0.5,2.5-2c0-1.3-0.9-2.1-2.3-2.1h-3.2V18.8z M-103.3,7.2h-3v4.4h3.5
			c1.5,0,2.5-0.9,2.5-2.2C-100.2,7.6-101.9,7.2-103.3,7.2z"/>
		<polygon fill="#6B7482" points="-83.8,34.8 -91.8,34.8 -91.8,49.3 -95.3,49.3 -95.3,31.5 -83.8,31.5 		"/>
		<polygon fill="#6B7482" points="-46.3,13.1 -38.8,21.9 -43,21.9 -50.1,13.5 -50.1,21.9 -53.5,21.9 -53.5,4.1 -50.1,4.1 
			-50.1,12.5 -42.8,4.1 -38.3,4.1 		"/>
		<path fill="#6B7482" d="M-84.5,22h-3.2l-7.4-17.9h3.6l1.8,4.7h7l1.8-4.7h3.7L-84.5,22z M-88.5,11.9l2.3,6l2.3-6H-88.5z"/>
		<path fill="#6B7482" d="M-73.7,31.3c5.1,0,9.3,4.1,9.3,9.2c0,5-4.2,9.1-9.3,9.1c-5,0-9.3-4.1-9.3-9.1
			C-83,35.3-78.8,31.3-73.7,31.3z M-73.7,46.3c3.1,0,5.7-2.6,5.7-5.9c0-3.4-2.5-5.9-5.7-5.9c-3.2,0-5.7,2.6-5.7,5.9
			C-79.4,43.7-76.8,46.3-73.7,46.3z"/>
		<polygon fill="#6B7482" points="-61.3,31.5 -57.4,31.5 -46.6,49.3 -50.5,49.3 -55.1,41.6 -59.9,49.3 -63.9,49.3 -57,38.6 		"/>
		<polygon fill="#6B7482" points="-71,16.4 -61.1,4.1 -58.7,4.1 -58.7,21.9 -62,21.9 -62,10.2 -71.4,21.9 -74.3,21.9 -74.3,4.1 
			-71,4.1 		"/>
		<polygon fill="#6B7482" points="-98.3,34.8 -106.3,34.8 -106.3,49.3 -109.7,49.3 -109.7,31.5 -98.3,31.5 		"/>
		<path fill="#6B7482" d="M-76.4-14.4c0-5.1,4.1-9.2,9.3-9.2c5.1,0,9.3,4,9.3,9.2c0,5-4.2,9.1-9.3,9.1C-72.1-5.3-76.4-9.4-76.4-14.4
			L-76.4-14.4z M-67.1-8.6c3.1,0,5.7-2.6,5.7-5.9c0-3.4-2.5-5.9-5.7-5.9c-3.2,0-5.7,2.6-5.7,5.9C-72.8-11.1-70.2-8.6-67.1-8.6z"/>
	</g>
	<g opacity="0.1">
		<path fill="#F6F6F6" d="M21.4,12.7c-2.9,0-6-2.7-6.4-5.8C15,6.3,15,5.9,15.3,5.9c0.7,0,2.1,4.1,4.8,4.1c0.8,0,1-0.3,1-0.6
			c0-0.6-0.9-1-0.9-1.8c0-0.1,0.1-0.3,0.3-0.3c0.7,0,1.2,1.5,3.9,1.5c0.7,0,1.4-0.1,2-0.2c0.3-0.1,0.9-0.4,0.7,0.5
			C26.5,10.9,24.4,12.7,21.4,12.7z"/>
		<path fill="#F6F6F6" d="M66.3,31.2c-0.8,0.3-0.9,0.7-0.7,1.7c0.2,1,0.2,1.5-0.2,1.6c-0.4,0.1-1-0.1-1.5-0.7
			c-0.5-0.7-1.3-1.5-1.5-2.1c-0.2-0.9,0.8-0.7,0.1-2.2c-1.3-2.3-1.6-2.8-2.2-4.5c-0.6-1.7-1-2-1.3-2.5c-0.4-0.5,0.5-0.6,1.5-0.2
			c1,0.4,1.1-0.9,0.7-1.7c-0.3-0.6-0.1-0.9,0.8-0.2c0.8,0.6-0.4,1.1-0.1,3.1c0.3,1.8,0.7,2.8,1.8,4.5c0.9,1.5,1.7,2.6,3.3,2.1
			C67.4,29.7,67.1,30.9,66.3,31.2z"/>
		<path fill="#F6F6F6" d="M80.1,6.9c-1.9,2.2-2.6,1.7-1.9,3.5c3,7.3,4.9,18.4-4.1,22.2c-1,0.4-1.9,0.4-1.9,0.2c0-0.2,1-0.5,2.2-1.3
			c6-4,4.2-14.9-1.4-20.1c-1.8-1.8-1-2.2,1.3-3.3c6.9-3.2,6.5-9,7.1-7.5C81.7,1.3,82.6,4.1,80.1,6.9z"/>
		<path fill="#F6F6F6" d="M63.9,9.3c-0.4-0.3-1.7-1.2-2.3-1.6c-2.7-1.9-6.8-2.8-8.5-2.8c-3.5,0-6.5,1-9.7,1
			c-9.6,0-13.1-7.5-12.7-11.8c0.1-0.7,0.2-0.7,0.4-0.7c0.7,0,1.2,2.6,3.6,4.8c3.5,3.3,7.3,5.2,12.7,5.2c3.9,0,5.5-1.3,5.5-1.8
			c0-1-1.7-1-1.5-2c0-0.3,0.9-1,3.4-0.7c3.8,0.4,4.4,1.3,5.1,4.2c0.3,1.3,1.3,2.8,2.2,3.7c0.6,0.6,1.1,1.1,1.7,2
			C64.1,9.1,64.2,9.4,63.9,9.3z"/>
	</g>
</symbol>
<symbol  id="_x2E_logo-pearson" viewBox="-131 -20.6 262 41.2">
	<path fill="#6B7482" d="M68.9,20.6c-10.7,0-19.7-9.1-19.7-20c0-12.3,8.4-21.3,19.9-21.3c10.9,0,19.7,9.5,19.7,21.3
		C88.8,11.7,79.8,20.6,68.9,20.6 M69-15.6c-9.2,0-12.5,9.6-12.5,16c0,5.9,3.4,15.1,12.4,15.1c8.6,0,12.5-8.7,12.5-14.9
		C81.4-7.4,77.2-15.6,69-15.6 M-118.4,20.6c7,0,14.5-3.1,14.5-11.8c0-8.4-8.2-13.4-16.7-13.4c0,1.4-0.1,2.8-0.1,4.3
		c6.5,0.5,9.9,3.6,9.9,8.8c0,4.4-3.6,7.6-8.8,7.6h-4.2c0-12.9,0.3-31.6,0.8-36.2c-2.8,0.5-5.1,0.6-7.9,0c0.7,5.6,1.1,35.5,0,40.8
		c0,0,5.2-0.2,6.4-0.2C-123.2,20.6-119.8,20.6-118.4,20.6 M-51.5,20.3c-2-7.9-10.5-30.8-14.6-40.5c2.7,0.4,5.5,0.3,6.8,0.1
		c1.4,4.4,2.8,9.5,3.5,11.5c4.2,0.3,9.2,0.3,14.2,0c1.5-4.1,2.4-7,3.8-11.5c2.6,0.3,5.2,0.2,8.1,0c-4,9.7-13.4,34.7-14.9,40.5
		C-46.7,20.1-49.3,20.1-51.5,20.3 M-54.2-3.2c0,0,3.9,11.5,5.2,15.5c0,0,4-11.4,5.5-15.5C-47.9-3.6-50.1-3.6-54.2-3.2 M-87.9-15.1
		c4.3-0.2,14.4,0.4,14.4,0.4c0-4.4-0.3-5.7-0.3-5.7c-3.8,0.5-15.2,0.8-21.4,0c0.9,9.9,0.6,30.3,0,40.8c5.7-0.5,16.6-0.4,21.3,0v-5.7
		c-4,0.4-10.3,0.8-13.9,0.7c0,0-0.1-9.4,0-11.9c6.4-0.5,11.2,0.3,13.2,0.4v-5.7c0,0-7.5,0.7-13.2,0.3C-87.9-5.2-87.9-10.8-87.9-15.1
		 M130.8-19.3c0-0.1,0.1-0.8,0.1-0.8c-1.8,0.3-4.4,0.3-6.1,0c-3.2,4.7-15.9,22.1-20.9,28.6c-0.2-9.5-0.3-23.8,0.3-28.5
		c-0.8,0-1.9,0-2.5,0c-1.7,0-2.5,0.1-4-0.1c0.8,4.9,1,35.1,0,40.4c2.4,0,4.4-0.1,5.1,0c0.6,0,1,0.1,1,0.1S117.5,2,124.6-7.5
		c0.1,3.6,0.4,21.8-0.3,27.9c1-0.1,2.1-0.5,3.3-0.5c1.1,0,2.2,0.3,3.3,0.5C130,12.7,129.6-13.5,130.8-19.3 M4.3,9.7
		c0-6.5-4.4-10.3-8.7-11.1c3.1-4,14.2-18.8,14.2-18.8c-2.8,0.4-6.9,0.4-9,0.1C-2.7-14.5-8.7-5.9-11-3.2c0,1.6-0.1,2.8-0.1,4.4
		c6.9-0.1,8.4,4.4,8.4,7.7c0,4.3-3.9,6.6-7.8,6.6h-3.4c-0.3-7.8,0.3-26.8,0.6-35.7c-2.7,0.3-5.7,0.2-7.8,0c0.9,6.5,0.8,36.1,0,40.6
		c0,0,4.3-0.3,6.1-0.2c1.7,0.1,3.2,0.2,5.2,0.2C-5.6,20.4,4.3,19.4,4.3,9.7 M33,2.9c4.4-2.8,7.8-5.5,7.8-11.5
		c0-8.7-6.8-11.8-12.7-11.8c-4.8,0-9.9,2.5-12.3,4.4c0.9,1.7,1.8,3.5,2.5,6c2.6-2.9,6.7-5,9.4-5c3.7,0,5.9,2,5.9,5.3
		c0.1,2.5-1.7,4.3-3.9,6.2c-1.7,1.4-5.8,4.1-6.8,4.9c-3.3,2.7-5.3,4.9-5.3,9.2c0,5.7,5.1,10,11.8,10c3.4,0,6.7-1,10.6-3.7
		c-1-1.4-2.3-3.7-3-5.8c-1.6,2.1-4,4.4-7.4,4.4c-3.2,0-5.2-1.8-5.2-4.8c0-1,0.7-2.1,2.1-3.4C28,6.2,30,4.8,33,2.9"/>
</symbol>
<use xlink:href="#_x2E_logo-pearson"  width="262" height="41.2" x="-131" y="-20.6" transform="matrix(1 0 0 -1 479.1105 64.5711)" overflow="visible"/>
<use xlink:href="#_x2E_logo-az"  width="325.4" height="81.3" x="-162.7" y="-40.6" transform="matrix(1 0 0 -1 180.4285 64.5711)" overflow="visible"/>
<use xlink:href="#_x2E_logo-bede"  width="179.8" height="85.4" x="-89.9" y="-42.7" transform="matrix(1 0 0 -1 705.0108 64.5711)" overflow="visible"/>
<use xlink:href="#_x2E_logo-aj"  width="296.3" height="100.2" x="-148.2" y="-50.1" transform="matrix(1 0 0 -1 948.0992 64.5711)" overflow="visible"/>
<use xlink:href="#_x2E_logo-lloyds"  width="220.9" height="99.2" x="-110.5" y="-49.6" transform="matrix(1 0 0 -1 1211.7266 64.5711)" overflow="visible"/>
</svg>
