<?xml version="1.0" encoding="utf-8"?>
<!-- Generator: Adobe Illustrator 18.1.1, SVG Export Plug-In . SVG Version: 6.00 Build 0)  -->
<svg version="1.1" id="Layer_1" xmlns="http://www.w3.org/2000/svg" xmlns:xlink="http://www.w3.org/1999/xlink" x="0px" y="0px"
	 width="35px" height="34px" viewBox="0 0 35 34" enable-background="new 0 0 35 34" xml:space="preserve">
<g>
	<path fill="#6B7482" d="M35,7.4c0,0.4-0.3,0.7-0.7,0.7H0.7C0.3,8.1,0,7.8,0,7.4V0.7C0,0.3,0.3,0,0.7,0h33.6C34.7,0,35,0.3,35,0.7
		V7.4z M35,20.4c0,0.4-0.3,0.7-0.7,0.7H0.7C0.3,21,0,20.7,0,20.4v-6.7C0,13.3,0.3,13,0.7,13h33.6c0.4,0,0.7,0.3,0.7,0.7V20.4z
		 M35,33.3c0,0.4-0.3,0.7-0.7,0.7H0.7C0.3,34,0,33.7,0,33.3v-6.7c0-0.4,0.3-0.7,0.7-0.7h33.6c0.4,0,0.7,0.3,0.7,0.7V33.3z"/>
</g>
</svg>
