<?xml version="1.0" encoding="utf-8"?>
<!-- Generator: Adobe Illustrator 18.1.1, SVG Export Plug-In . SVG Version: 6.00 Build 0)  -->
<svg version="1.1" id="Layer_1" xmlns="http://www.w3.org/2000/svg" xmlns:xlink="http://www.w3.org/1999/xlink" x="0px" y="0px"
	 width="26px" height="21px" viewBox="0 0 26 21" enable-background="new 0 0 26 21" xml:space="preserve">
<g>
	<path fill="#EE4F7E" d="M23.3,5.2c0,0.2,0,0.5,0,0.7c0,7-5.4,15.1-15.2,15.1c-3,0-5.8-0.7-8.2-2.2c0.4,0.1,0.8,0.1,1.3,0.1
		c2.5,0,4.8-1.1,6.6-2.5c-2.3,0-4.3-1.6-5-3.7c0.3,0.1,0.7,0.1,1,0.1c0.5,0,1-0.1,1.4-0.2C2.9,12.2,1.1,10,1.1,7.4c0,0,0,0,0-0.1
		C1.8,7.8,2.6,8,3.5,8C2,7.1,1.1,5.5,1.1,3.6c0-1,0.3-1.8,0.7-2.6c2.7,3.2,6.6,5.2,11,5.4c-0.1-0.4-0.1-0.8-0.1-1.2
		C12.7,2.4,15,0,18,0c1.5,0,2.9,0.7,3.9,1.7c1.2-0.2,2.3-0.7,3.4-1.3c-0.4,1.2-1.2,2.3-2.3,2.9C24,3.2,25,2.9,26,2.5
		C25.3,3.6,24.4,4.5,23.3,5.2z"/>
</g>
</svg>
