<?xml version="1.0" encoding="utf-8"?>
<!-- Generator: Adobe Illustrator 18.1.1, SVG Export Plug-In . SVG Version: 6.00 Build 0)  -->
<svg version="1.1" id="Layer_1" xmlns="http://www.w3.org/2000/svg" xmlns:xlink="http://www.w3.org/1999/xlink" x="0px" y="0px"
	 width="24px" height="21px" viewBox="0 0 24 21" enable-background="new 0 0 24 21" xml:space="preserve">
<g>
	<path fill="#EE4F7E" d="M20.5,0c2,0,3.5,1.6,3.5,4.1C24,10.5,14.5,21,11.3,21c-2.8,0-3.8-3-4.3-4.5L4,7C3.6,5.8,3,5.5,1,7L0,5.8
		C0,5.8,4.5,0,7.5,0s3.1,4.5,3.5,7c0.4,2.5,1.2,6.5,2.2,6.5c1,0,3.8-4.5,3.8-6.5c0-1.5-1-2.5-3-1.5C15,1.5,18.5,0,20.5,0z"/>
</g>
</svg>
